<?xml version="1.0" encoding="utf-8"?>
<!-- Generator: Adobe Illustrator 24.2.3, SVG Export Plug-In . SVG Version: 6.00 Build 0)  -->
<svg version="1.1" id="Layer_1" xmlns="http://www.w3.org/2000/svg" xmlns:xlink="http://www.w3.org/1999/xlink" x="0px" y="0px"
	 viewBox="0 0 500 334" style="enable-background:new 0 0 500 334;" xml:space="preserve">
<style type="text/css">
	.st0{fill:#16B5DC;}
	.st1{opacity:0.9;}
	.st2{fill:#FFFFFF;}
	.st3{fill:#F5F5F5;}
	.st4{opacity:0.5;enable-background:new    ;}
	.st5{opacity:0.3;enable-background:new    ;}
	.st6{opacity:0.4;enable-background:new    ;}
	.st7{opacity:0.4;fill:#FFFFFF;enable-background:new    ;}
	.st8{opacity:0.4;fill:#16B5DC;enable-background:new    ;}
	.st9{opacity:0.5;fill:#FFFFFF;enable-background:new    ;}
	.st10{opacity:0.3;fill:#FFFFFF;enable-background:new    ;}
	.st11{opacity:0.3;}
	.st12{fill:#FF8B7B;}
	.st13{opacity:0.1;enable-background:new    ;}
	.st14{fill:#263238;}
	.st15{opacity:0.2;}
	.st16{opacity:0.6;enable-background:new    ;}
	.st17{opacity:0.2;enable-background:new    ;}
	.st18{fill:#FF5652;}
	.st19{opacity:0.2;fill:#FFFFFF;enable-background:new    ;}
</style>
<g id="freepik--background-simple--inject-109">
	<path class="st0" d="M78.8,240.8c-9.4-36.5-3.1-75.2,17.4-106.9c5.2-8,11.5-15.6,19.8-20.4s18.9-6.4,27.5-2.4
		c9.9,4.6,15.1,15.2,20.9,24.4s14.4,18.6,25.2,18.2c6.5-0.2,12.2-4,17.5-7.8c53.6-39.2,91.7-100.1,152.8-126.3
		c13.5-5.8,29.4-9.6,42.6-3.2c14.5,7.1,21.1,24.3,22.6,40.3c2.3,25-4.5,50.2-16.3,72.4s-28.3,41.4-46,59.2
		c-45.9,46-103,83.4-167,94.1c-21.4,3.6-43.7,4.1-64.7-1.8S90.6,262,79.5,243.3C79.5,245,78.8,240.8,78.8,240.8z"/>
	<g class="st1">
		<path class="st2" d="M78.8,240.8c-9.4-36.5-3.1-75.2,17.4-106.9c5.2-8,11.5-15.6,19.8-20.4s18.9-6.4,27.5-2.4
			c9.9,4.6,15.1,15.2,20.9,24.4s14.4,18.6,25.2,18.2c6.5-0.2,12.2-4,17.5-7.8c53.6-39.2,91.7-100.1,152.8-126.3
			c13.5-5.8,29.4-9.6,42.6-3.2c14.5,7.1,21.1,24.3,22.6,40.3c2.3,25-4.5,50.2-16.3,72.4s-28.3,41.4-46,59.2
			c-45.9,46-103,83.4-167,94.1c-21.4,3.6-43.7,4.1-64.7-1.8S90.6,262,79.5,243.3C79.5,245,78.8,240.8,78.8,240.8z"/>
	</g>
</g>
<g id="freepik--Shadow--inject-109">
	<ellipse id="freepik--path--inject-109" class="st3" cx="250" cy="314.8" rx="193.9" ry="11.3"/>
</g>
<g id="freepik--chart-2--inject-109">
	<rect x="217.2" y="141.8" class="st0" width="66" height="173.7"/>
	<rect x="234.2" y="141.8" class="st4" width="49.2" height="173.7"/>
	<rect x="303.5" y="201" class="st0" width="66" height="114.5"/>
	<rect x="320.2" y="200.8" class="st5" width="49.2" height="114.8"/>
	<rect x="130.5" y="172.8" class="st0" width="66" height="142.7"/>
	<rect x="147.3" y="172.4" class="st6" width="49.2" height="143.1"/>
</g>
<g id="freepik--Coins--inject-109">
	<path class="st0" d="M156.2,315.7c-0.1,2.1,6.6,4.1,15,4.5s15.3-1.1,15.4-3.2s-6.6-4.1-15-4.5S156.3,313.6,156.2,315.7z"/>
	
		<rect x="169.6" y="299.2" transform="matrix(4.239879e-02 -0.9991 0.9991 4.239879e-02 -149.9102 472.4518)" class="st0" width="3.9" height="30.4"/>
	<path class="st0" d="M156.4,311.9c-0.1,2.1,6.6,4.1,15,4.5s15.3-1.1,15.4-3.2s-6.6-4.1-15-4.5S156.5,309.8,156.4,311.9z"/>
	<path class="st7" d="M156.4,311.9c-0.1,2.1,6.6,4.1,15,4.5s15.3-1.1,15.4-3.2s-6.6-4.1-15-4.5S156.5,309.8,156.4,311.9z"/>
	<path class="st0" d="M158.3,311.8c0,0.1,0,0.3,0.1,0.4c1-1.2,6.6-2,13.2-1.7s12.1,1.5,13,2.8c0.1-0.1,0.2-0.2,0.2-0.4
		c0.1-1.4-5.8-2.9-13.1-3.2S158.4,310.4,158.3,311.8z"/>
	<path class="st8" d="M158.3,311.8c0,0.1,0,0.3,0.1,0.4c1-1.2,6.6-2,13.2-1.7s12.1,1.5,13,2.8c0.1-0.1,0.2-0.2,0.2-0.4
		c0.1-1.4-5.8-2.9-13.1-3.2S158.4,310.4,158.3,311.8z"/>
	<path class="st8" d="M158.5,312.2c0.9,1.3,6.4,2.5,13,2.8s12.2-0.5,13.2-1.7c-0.9-1.3-6.4-2.5-13-2.8S159.5,310.9,158.5,312.2z"/>
	<path class="st0" d="M153,309.9c-0.1,2.1,6.6,4.1,15,4.5s15.3-1.1,15.4-3.2s-6.6-4.1-15-4.5S153.1,307.8,153,309.9z"/>
	
		<rect x="166.4" y="293.4" transform="matrix(4.239879e-02 -0.9991 0.9991 4.239879e-02 -147.1602 463.701)" class="st0" width="3.9" height="30.4"/>
	<path class="st0" d="M153.2,306.1c-0.1,2.1,6.6,4.1,15,4.5s15.3-1.1,15.4-3.2s-6.6-4.1-15-4.5S153.3,303.9,153.2,306.1z"/>
	<path class="st7" d="M153.2,306.1c-0.1,2.1,6.6,4.1,15,4.5s15.3-1.1,15.4-3.2s-6.6-4.1-15-4.5S153.3,303.9,153.2,306.1z"/>
	<path class="st0" d="M155.1,306c0,0.1,0,0.3,0.1,0.4c1-1.2,6.6-2,13.2-1.7s12.1,1.5,13,2.8c0.1-0.1,0.1-0.2,0.2-0.4
		c0.1-1.4-5.8-2.9-13.1-3.2S155.2,304.5,155.1,306z"/>
	<path class="st8" d="M155.1,306c0,0.1,0,0.3,0.1,0.4c1-1.2,6.6-2,13.2-1.7s12.1,1.5,13,2.8c0.1-0.1,0.1-0.2,0.2-0.4
		c0.1-1.4-5.8-2.9-13.1-3.2S155.2,304.5,155.1,306z"/>
	<path class="st8" d="M155.3,306.4c0.9,1.3,6.4,2.5,13,2.8s12.2-0.5,13.2-1.7c-0.9-1.3-6.4-2.5-13-2.8S156.3,305.1,155.3,306.4z"/>
	<path class="st0" d="M153.4,302.9c-0.1,2.1,6.6,4.1,15,4.5s15.3-1.1,15.4-3.2s-6.6-4.1-15-4.5S153.5,300.8,153.4,302.9z"/>
	
		<rect x="166.8" y="286.4" transform="matrix(4.239879e-02 -0.9991 0.9991 4.239879e-02 -139.7431 457.3849)" class="st0" width="3.9" height="30.4"/>
	<path class="st0" d="M153.6,299c-0.1,2.1,6.6,4.1,15,4.5s15.3-1.1,15.4-3.2s-6.6-4.1-15-4.5S153.7,296.9,153.6,299z"/>
	<path class="st7" d="M153.6,299c-0.1,2.1,6.6,4.1,15,4.5s15.3-1.1,15.4-3.2s-6.6-4.1-15-4.5S153.7,296.9,153.6,299z"/>
	<path class="st0" d="M155.6,299c0,0.1,0,0.3,0.1,0.4c1-1.2,6.6-2,13.2-1.7s12.1,1.5,13,2.8c0.1-0.1,0.2-0.2,0.2-0.4
		c0.1-1.4-5.8-2.9-13.1-3.2S155.6,297.5,155.6,299z"/>
	<path class="st8" d="M155.6,299c0,0.1,0,0.3,0.1,0.4c1-1.2,6.6-2,13.2-1.7s12.1,1.5,13,2.8c0.1-0.1,0.2-0.2,0.2-0.4
		c0.1-1.4-5.8-2.9-13.1-3.2S155.6,297.5,155.6,299z"/>
	<path class="st8" d="M155.7,299.3c0.9,1.3,6.4,2.5,13,2.8s12.2-0.5,13.2-1.7c-0.9-1.3-6.4-2.5-13-2.8S156.7,298.1,155.7,299.3z"/>
	<path class="st0" d="M150.3,297.1c-0.1,2.1,6.6,4.1,15,4.5s15.3-1.1,15.4-3.2s-6.6-4.1-15-4.5S150.4,294.9,150.3,297.1z"/>
	
		<rect x="163.6" y="280.5" transform="matrix(4.239879e-02 -0.9991 0.9991 4.239879e-02 -136.9626 448.5858)" class="st0" width="3.9" height="30.4"/>
	<path class="st0" d="M150.4,293.2c-0.1,2.1,6.6,4.1,15,4.5s15.3-1.1,15.4-3.2s-6.6-4.1-15-4.5S150.5,291.1,150.4,293.2z"/>
	<path class="st7" d="M150.4,293.2c-0.1,2.1,6.6,4.1,15,4.5s15.3-1.1,15.4-3.2s-6.6-4.1-15-4.5S150.5,291.1,150.4,293.2z"/>
	<path class="st0" d="M152.4,293.1c0,0.1,0,0.3,0.1,0.4c1-1.2,6.6-2,13.2-1.7s12.1,1.5,13,2.8c0.1-0.1,0.1-0.2,0.2-0.4
		c0.1-1.4-5.8-2.9-13.1-3.2S152.4,291.7,152.4,293.1z"/>
	<path class="st8" d="M152.4,293.1c0,0.1,0,0.3,0.1,0.4c1-1.2,6.6-2,13.2-1.7s12.1,1.5,13,2.8c0.1-0.1,0.1-0.2,0.2-0.4
		c0.1-1.4-5.8-2.9-13.1-3.2S152.4,291.7,152.4,293.1z"/>
	<path class="st8" d="M152.5,293.5c0.9,1.3,6.4,2.5,13,2.8s12.2-0.5,13.2-1.7c-0.9-1.3-6.4-2.5-13-2.8S153.5,292.3,152.5,293.5z"/>
	<path class="st0" d="M155.1,292.1c-0.1,2.1,6.6,4.1,15,4.5s15.3-1.1,15.4-3.2s-6.6-4.1-15-4.5S155.2,290,155.1,292.1z"/>
	
		<rect x="168.5" y="275.6" transform="matrix(4.239879e-02 -0.9991 0.9991 4.239879e-02 -127.3779 448.7557)" class="st0" width="3.9" height="30.4"/>
	<path class="st0" d="M155.3,288.3c-0.1,2.1,6.6,4.1,15,4.5s15.3-1.1,15.4-3.2s-6.6-4.1-15-4.5S155.4,286.1,155.3,288.3z"/>
	<path class="st7" d="M155.3,288.3c-0.1,2.1,6.6,4.1,15,4.5s15.3-1.1,15.4-3.2s-6.6-4.1-15-4.5S155.4,286.1,155.3,288.3z"/>
	<path class="st0" d="M157.2,288.2c0,0.1,0,0.3,0.1,0.4c1-1.2,6.6-2,13.2-1.7s12.1,1.5,13,2.8c0.1-0.1,0.2-0.2,0.2-0.4
		c0.1-1.4-5.8-2.9-13.1-3.2S157.3,286.8,157.2,288.2z"/>
	<path class="st8" d="M157.2,288.2c0,0.1,0,0.3,0.1,0.4c1-1.2,6.6-2,13.2-1.7s12.1,1.5,13,2.8c0.1-0.1,0.2-0.2,0.2-0.4
		c0.1-1.4-5.8-2.9-13.1-3.2S157.3,286.8,157.2,288.2z"/>
	<path class="st8" d="M157.4,288.6c0.9,1.3,6.4,2.5,13,2.8s12.2-0.5,13.2-1.7c-0.9-1.3-6.4-2.5-13-2.8S158.4,287.3,157.4,288.6z"/>
	<path class="st0" d="M151.9,286.3c-0.1,2.1,6.6,4.1,15,4.5s15.3-1.1,15.4-3.2s-6.6-4.1-15-4.5S152,284.1,151.9,286.3z"/>
	
		<rect x="165.3" y="269.8" transform="matrix(4.239879e-02 -0.9991 0.9991 4.239879e-02 -124.6075 439.9661)" class="st0" width="3.9" height="30.4"/>
	<path class="st0" d="M152.1,282.4c-0.1,2.1,6.6,4.1,15,4.5s15.3-1.1,15.4-3.2s-6.6-4.1-15-4.5S152.2,280.3,152.1,282.4z"/>
	<path class="st7" d="M152.1,282.4c-0.1,2.1,6.6,4.1,15,4.5s15.3-1.1,15.4-3.2s-6.6-4.1-15-4.5S152.2,280.3,152.1,282.4z"/>
	<path class="st0" d="M154,282.4c0,0.1,0,0.3,0.1,0.4c1-1.2,6.6-2,13.2-1.7s12.1,1.5,13,2.8c0.1-0.1,0.2-0.2,0.2-0.4
		c0.1-1.4-5.8-2.9-13.1-3.2S154.1,280.9,154,282.4z"/>
	<path class="st8" d="M154,282.4c0,0.1,0,0.3,0.1,0.4c1-1.2,6.6-2,13.2-1.7s12.1,1.5,13,2.8c0.1-0.1,0.2-0.2,0.2-0.4
		c0.1-1.4-5.8-2.9-13.1-3.2S154.1,280.9,154,282.4z"/>
	<path class="st8" d="M154.2,282.7c0.9,1.3,6.4,2.5,13,2.8s12.2-0.5,13.2-1.7c-0.9-1.3-6.4-2.5-13-2.8S155.2,281.5,154.2,282.7z"/>
	<path class="st0" d="M110.9,313.9c-0.1,2.1,6.6,4.1,15,4.5s15.3-1.1,15.4-3.2s-6.6-4.1-15-4.5S111,311.7,110.9,313.9z"/>
	
		<rect x="124.3" y="297.3" transform="matrix(4.239879e-02 -0.9991 0.9991 4.239879e-02 -191.4498 425.372)" class="st0" width="3.8" height="30.4"/>
	<path class="st0" d="M111.1,310c-0.1,2.1,6.6,4.1,15,4.5s15.3-1.1,15.4-3.2s-6.6-4.1-15-4.5S111.2,307.9,111.1,310z"/>
	<path class="st7" d="M111.1,310c-0.1,2.1,6.6,4.1,15,4.5s15.3-1.1,15.4-3.2s-6.6-4.1-15-4.5S111.2,307.9,111.1,310z"/>
	<path class="st0" d="M113,309.9c0,0.1,0,0.3,0.1,0.4c1-1.2,6.6-2,13.2-1.7s12.1,1.5,13,2.8c0.1-0.1,0.1-0.2,0.2-0.4
		c0.1-1.4-5.8-2.9-13.2-3.2S113.1,308.5,113,309.9z"/>
	<path class="st8" d="M113,309.9c0,0.1,0,0.3,0.1,0.4c1-1.2,6.6-2,13.2-1.7s12.1,1.5,13,2.8c0.1-0.1,0.1-0.2,0.2-0.4
		c0.1-1.4-5.8-2.9-13.2-3.2S113.1,308.5,113,309.9z"/>
	<path class="st8" d="M113.1,310.3c0.9,1.3,6.4,2.5,13,2.8c6.6,0.3,12.2-0.5,13.2-1.7c-0.9-1.3-6.4-2.5-13-2.8
		S114.2,309.1,113.1,310.3z"/>
	<path class="st0" d="M124.1,310.1c-0.5,2.1,5.7,5.3,13.9,7.3s15.2,1.8,15.7-0.2s-5.7-5.3-13.9-7.3S124.6,308,124.1,310.1z"/>
	
		<rect x="137.4" y="296.6" transform="matrix(0.2314 -0.9729 0.9729 0.2314 -196.1953 375.2156)" class="st0" width="3.9" height="30.4"/>
	<path class="st0" d="M125,306.4c-0.5,2.1,5.7,5.3,13.9,7.3s15.2,1.8,15.7-0.2s-5.7-5.3-13.9-7.3S125.5,304.3,125,306.4z"/>
	<path class="st7" d="M125,306.4c-0.5,2.1,5.7,5.3,13.9,7.3s15.2,1.8,15.7-0.2s-5.7-5.3-13.9-7.3S125.5,304.3,125,306.4z"/>
	<path class="st0" d="M126.9,306.7c0,0.1,0,0.3,0.1,0.4c1.2-1,6.8-0.7,13.3,0.8s11.6,3.8,12.2,5.2c0.1-0.1,0.2-0.2,0.2-0.3
		c0.3-1.4-5.2-3.9-12.3-5.6S127.3,305.3,126.9,306.7z"/>
	<path class="st8" d="M126.9,306.7c0,0.1,0,0.3,0.1,0.4c1.2-1,6.8-0.7,13.3,0.8s11.6,3.8,12.2,5.2c0.1-0.1,0.2-0.2,0.2-0.3
		c0.3-1.4-5.2-3.9-12.3-5.6S127.3,305.3,126.9,306.7z"/>
	<path class="st8" d="M127,307.1c0.6,1.5,5.8,3.7,12.2,5.2s12.1,1.9,13.3,0.8c-0.6-1.5-5.8-3.7-12.2-5.2S128.2,306,127,307.1z"/>
	<circle class="st0" cx="162.7" cy="271.3" r="13.7"/>
	<circle class="st0" cx="164.3" cy="271.3" r="13.7"/>
	<circle class="st9" cx="164.3" cy="271.3" r="13.7"/>
	
		<ellipse transform="matrix(0.7071 -0.7071 0.7071 0.7071 -143.7104 195.6714)" class="st0" cx="164.3" cy="271.3" rx="10.3" ry="10.3"/>
	<path class="st10" d="M168.5,274.7c-0.8,0.9-2,1.3-3.2,1.3c-1.9,0.1-3.6-1.1-4.3-2.8h5.5V272h-5.8c0-0.2,0-0.4,0-0.5
		c0-0.2,0-0.4,0-0.5h5.8v-1.2H161c0.7-1.7,2.4-2.9,4.3-2.8c1.2,0,2.4,0.4,3.2,1.3l0.2,0.2l1.1-1.1l-0.1-0.2
		c-1.2-1.2-2.7-1.8-4.4-1.7c-2.8-0.1-5.2,1.7-6,4.3h-1.9v1.2h1.7c0,0.2,0,0.4,0,0.5s0,0.4,0,0.5h-1.7v1.2h1.9c0.8,2.7,3.2,4.4,6,4.3
		c1.6,0.1,3.2-0.6,4.4-1.8l0.1-0.2l-1.1-1.1L168.5,274.7z"/>
	<path class="st0" d="M356.3,317.6c-0.1,2.1-6.9,3.6-15.3,3.3s-15.1-2.3-15.1-4.4s7-3.6,15.3-3.3S356.4,315.5,356.3,317.6z"/>
	
		<rect x="339.2" y="299.9" transform="matrix(3.577167e-02 -0.9994 0.9994 3.577167e-02 14.0307 644.7326)" class="st0" width="3.9" height="30.4"/>
	<path class="st0" d="M356.4,313.8c-0.1,2.1-6.9,3.6-15.3,3.3s-15.1-2.3-15.1-4.4s6.9-3.6,15.3-3.3S356.5,311.6,356.4,313.8z"/>
	<path class="st7" d="M356.4,313.8c-0.1,2.1-6.9,3.6-15.3,3.3s-15.1-2.3-15.1-4.4s6.9-3.6,15.3-3.3S356.5,311.6,356.4,313.8z"/>
	<path class="st0" d="M354.5,313.5c0,0.1-0.1,0.3-0.2,0.4c-0.9-1.3-6.4-2.5-13-2.7s-12.2,0.5-13.2,1.8c-0.1-0.1-0.1-0.2-0.1-0.4
		c0.1-1.4,6-2.4,13.4-2.2S354.5,312.1,354.5,313.5z"/>
	<path class="st8" d="M354.5,313.5c0,0.1-0.1,0.3-0.2,0.4c-0.9-1.3-6.4-2.5-13-2.7s-12.2,0.5-13.2,1.8c-0.1-0.1-0.1-0.2-0.1-0.4
		c0.1-1.4,6-2.4,13.4-2.2S354.5,312.1,354.5,313.5z"/>
	<path class="st8" d="M354.3,313.9c-1,1.2-6.6,2-13.2,1.8s-12.1-1.4-13-2.7c1-1.2,6.5-2,13.2-1.8S353.4,312.6,354.3,313.9z"/>
	<path class="st0" d="M359.9,312c-0.1,2.1-6.9,3.6-15.3,3.3s-15.1-2.3-15.1-4.4s7-3.6,15.3-3.3S360,309.9,359.9,312z"/>
	
		<rect x="342.9" y="294.4" transform="matrix(3.594599e-02 -0.9994 0.9994 3.594599e-02 23.0115 643.0391)" class="st0" width="3.9" height="30.4"/>
	<path class="st0" d="M360,308.2c-0.1,2.1-6.9,3.6-15.3,3.3s-15.1-2.3-15.1-4.4s6.9-3.6,15.3-3.3S360.1,306.1,360,308.2z"/>
	<path class="st7" d="M360,308.2c-0.1,2.1-6.9,3.6-15.3,3.3s-15.1-2.3-15.1-4.4s6.9-3.6,15.3-3.3S360.1,306.1,360,308.2z"/>
	<path class="st0" d="M358.1,308c0,0.1-0.1,0.3-0.2,0.4c-0.9-1.3-6.4-2.5-13-2.7s-12.2,0.5-13.2,1.8c-0.1-0.1-0.1-0.2-0.1-0.4
		c0.1-1.4,6-2.4,13.4-2.2S358.2,306.5,358.1,308z"/>
	<path class="st8" d="M358.1,308c0,0.1-0.1,0.3-0.2,0.4c-0.9-1.3-6.4-2.5-13-2.7s-12.2,0.5-13.2,1.8c-0.1-0.1-0.1-0.2-0.1-0.4
		c0.1-1.4,6-2.4,13.4-2.2S358.2,306.5,358.1,308z"/>
	<path class="st8" d="M358,308.3c-1,1.3-6.6,2-13.2,1.8s-12.1-1.4-13-2.7c1-1.2,6.5-2,13.2-1.8S357,307,358,308.3z"/>
	<path class="st0" d="M360,305c-0.1,2.1-7,3.6-15.3,3.3s-15.1-2.3-15.1-4.4s6.9-3.6,15.3-3.3S360.1,302.9,360,305z"/>
	
		<rect x="343" y="287.3" transform="matrix(3.594599e-02 -0.9994 0.9994 3.594599e-02 30.1649 636.3884)" class="st0" width="3.9" height="30.4"/>
	<path class="st0" d="M360.2,301.1c-0.1,2.1-7,3.6-15.3,3.3s-15.1-2.3-15.1-4.4s6.9-3.6,15.3-3.3S360.3,299,360.2,301.1z"/>
	<path class="st7" d="M360.2,301.1c-0.1,2.1-7,3.6-15.3,3.3s-15.1-2.3-15.1-4.4s6.9-3.6,15.3-3.3S360.3,299,360.2,301.1z"/>
	<path class="st0" d="M358.3,300.9c0,0.1-0.1,0.3-0.2,0.4c-0.9-1.3-6.4-2.5-13-2.7s-12.2,0.5-13.2,1.8c-0.1-0.1-0.1-0.2-0.1-0.4
		c0-1.4,6-2.4,13.4-2.1S358.3,299.5,358.3,300.9z"/>
	<path class="st8" d="M358.3,300.9c0,0.1-0.1,0.3-0.2,0.4c-0.9-1.3-6.4-2.5-13-2.7s-12.2,0.5-13.2,1.8c-0.1-0.1-0.1-0.2-0.1-0.4
		c0-1.4,6-2.4,13.4-2.1S358.3,299.5,358.3,300.9z"/>
	<path class="st8" d="M358.1,301.3c-1,1.3-6.6,2-13.2,1.8s-12.1-1.4-13-2.7c1-1.3,6.5-2,13.2-1.8S357.2,300,358.1,301.3z"/>
	<path class="st0" d="M363.7,299.4c-0.1,2.1-7,3.6-15.3,3.3s-15.1-2.3-15.1-4.4s6.9-3.6,15.3-3.3S363.8,297.3,363.7,299.4z"/>
	
		<rect x="346.6" y="281.7" transform="matrix(3.577167e-02 -0.9994 0.9994 3.577167e-02 39.3057 634.6387)" class="st0" width="3.9" height="30.4"/>
	<path class="st0" d="M363.8,295.6c-0.1,2.1-6.9,3.6-15.3,3.3s-15.1-2.3-15.1-4.4s6.9-3.6,15.3-3.3S363.9,293.5,363.8,295.6z"/>
	<path class="st7" d="M363.8,295.6c-0.1,2.1-6.9,3.6-15.3,3.3s-15.1-2.3-15.1-4.4s6.9-3.6,15.3-3.3S363.9,293.5,363.8,295.6z"/>
	<path class="st0" d="M361.9,295.4c0,0.1-0.1,0.3-0.2,0.4c-0.9-1.3-6.4-2.5-13-2.7s-12.2,0.5-13.2,1.8c-0.1-0.1-0.1-0.2-0.1-0.4
		c0-1.4,6-2.4,13.4-2.1S362,293.9,361.9,295.4z"/>
	<path class="st8" d="M361.9,295.4c0,0.1-0.1,0.3-0.2,0.4c-0.9-1.3-6.4-2.5-13-2.7s-12.2,0.5-13.2,1.8c-0.1-0.1-0.1-0.2-0.1-0.4
		c0-1.4,6-2.4,13.4-2.1S362,293.9,361.9,295.4z"/>
	<path class="st8" d="M361.7,295.7c-1,1.3-6.6,2-13.2,1.8s-12.1-1.4-13-2.7c1-1.3,6.5-2,13.2-1.8S360.8,294.4,361.7,295.7z"/>
	<path class="st0" d="M243,313.3c-0.1,2.1,6.6,4.1,15,4.5s15.3-1.1,15.4-3.2s-6.6-4.1-15-4.5S243.1,311.2,243,313.3z"/>
	
		<rect x="256.3" y="296.8" transform="matrix(4.239879e-02 -0.9991 0.9991 4.239879e-02 -64.4652 556.7914)" class="st0" width="3.9" height="30.4"/>
	<path class="st0" d="M243.1,309.5c-0.1,2.1,6.6,4.1,15,4.5c8.4,0.4,15.3-1.1,15.4-3.2s-6.6-4.1-15-4.5S243.2,307.4,243.1,309.5z"/>
	<path class="st7" d="M243.1,309.5c-0.1,2.1,6.6,4.1,15,4.5c8.4,0.4,15.3-1.1,15.4-3.2s-6.6-4.1-15-4.5S243.2,307.4,243.1,309.5z"/>
	<path class="st0" d="M245.1,309.4c0,0.1,0,0.3,0.1,0.4c1-1.2,6.6-2,13.2-1.7s12.1,1.5,13,2.8c0.1-0.1,0.1-0.2,0.2-0.4
		c0.1-1.4-5.8-2.9-13.1-3.2S245.1,308,245.1,309.4z"/>
	<path class="st8" d="M245.1,309.4c0,0.1,0,0.3,0.1,0.4c1-1.2,6.6-2,13.2-1.7s12.1,1.5,13,2.8c0.1-0.1,0.1-0.2,0.2-0.4
		c0.1-1.4-5.8-2.9-13.1-3.2S245.1,308,245.1,309.4z"/>
	<path class="st8" d="M245.2,309.8c0.9,1.3,6.4,2.5,13,2.8c6.6,0.3,12.2-0.5,13.2-1.7c-0.9-1.3-6.4-2.5-13-2.8
		S246.2,308.5,245.2,309.8z"/>
	<path class="st0" d="M239.8,307.5c-0.1,2.1,6.6,4.1,15,4.5s15.3-1.1,15.4-3.2s-6.6-4.1-15-4.5S239.9,305.4,239.8,307.5z"/>
	
		<rect x="253.1" y="291" transform="matrix(4.239879e-02 -0.9991 0.9991 4.239879e-02 -61.7159 548.0598)" class="st0" width="3.9" height="30.4"/>
	<path class="st0" d="M239.9,303.6c-0.1,2.1,6.6,4.1,15,4.5c8.4,0.4,15.3-1.1,15.4-3.2s-6.6-4.1-15-4.5S240,301.5,239.9,303.6z"/>
	<path class="st7" d="M239.9,303.6c-0.1,2.1,6.6,4.1,15,4.5c8.4,0.4,15.3-1.1,15.4-3.2s-6.6-4.1-15-4.5S240,301.5,239.9,303.6z"/>
	<path class="st0" d="M241.9,303.6c0,0.1,0.1,0.3,0.1,0.4c1-1.2,6.6-2,13.2-1.7c6.6,0.3,12.1,1.5,13,2.8c0.1-0.1,0.2-0.2,0.2-0.4
		c0.1-1.4-5.8-2.9-13.1-3.2S241.9,302.1,241.9,303.6z"/>
	<path class="st8" d="M241.9,303.6c0,0.1,0.1,0.3,0.1,0.4c1-1.2,6.6-2,13.2-1.7c6.6,0.3,12.1,1.5,13,2.8c0.1-0.1,0.2-0.2,0.2-0.4
		c0.1-1.4-5.8-2.9-13.1-3.2S241.9,302.1,241.9,303.6z"/>
	<path class="st8" d="M242,304c0.9,1.3,6.4,2.5,13,2.8s12.2-0.5,13.2-1.7c-0.9-1.3-6.4-2.5-13-2.8S243,302.7,242,304z"/>
	<path class="st0" d="M240.2,300.5c-0.1,2.1,6.6,4.1,15,4.5c8.4,0.4,15.3-1.1,15.4-3.2s-6.6-4.1-15-4.5S240.3,298.4,240.2,300.5z"/>
	
		<rect x="253.5" y="284" transform="matrix(4.239879e-02 -0.9991 0.9991 4.239879e-02 -54.2884 541.7346)" class="st0" width="3.8" height="30.4"/>
	<path class="st0" d="M240.4,296.6c-0.1,2.1,6.6,4.1,15,4.5c8.4,0.4,15.3-1.1,15.4-3.2s-6.6-4.1-15-4.5S240.4,294.5,240.4,296.6z"/>
	<path class="st7" d="M240.4,296.6c-0.1,2.1,6.6,4.1,15,4.5c8.4,0.4,15.3-1.1,15.4-3.2s-6.6-4.1-15-4.5S240.4,294.5,240.4,296.6z"/>
	<path class="st0" d="M242.3,296.6c0,0.1,0,0.3,0.1,0.4c1-1.2,6.6-2,13.2-1.7c6.6,0.3,12.1,1.5,13,2.8c0.1-0.1,0.1-0.2,0.2-0.4
		c0.1-1.4-5.8-2.9-13.1-3.2S242.4,295.1,242.3,296.6z"/>
	<path class="st8" d="M242.3,296.6c0,0.1,0,0.3,0.1,0.4c1-1.2,6.6-2,13.2-1.7c6.6,0.3,12.1,1.5,13,2.8c0.1-0.1,0.1-0.2,0.2-0.4
		c0.1-1.4-5.8-2.9-13.1-3.2S242.4,295.1,242.3,296.6z"/>
	<path class="st8" d="M242.4,296.9c0.9,1.3,6.4,2.5,13,2.8c6.6,0.3,12.2-0.5,13.2-1.7c-0.9-1.3-6.4-2.5-13-2.8
		S243.4,295.7,242.4,296.9z"/>
	<path class="st0" d="M237,294.6c-0.1,2.1,6.6,4.1,15,4.5c8.4,0.4,15.3-1.1,15.4-3.2s-6.6-4.1-15-4.5S237.1,292.5,237,294.6z"/>
	
		<rect x="250.3" y="278.1" transform="matrix(4.239879e-02 -0.9991 0.9991 4.239879e-02 -51.5188 532.9449)" class="st0" width="3.9" height="30.4"/>
	<path class="st0" d="M237.2,290.8c-0.1,2.1,6.6,4.1,15,4.5c8.4,0.4,15.3-1.1,15.4-3.2s-6.6-4.1-15-4.5S237.2,288.7,237.2,290.8z"/>
	<path class="st7" d="M237.2,290.8c-0.1,2.1,6.6,4.1,15,4.5c8.4,0.4,15.3-1.1,15.4-3.2s-6.6-4.1-15-4.5S237.2,288.7,237.2,290.8z"/>
	<path class="st0" d="M239.1,290.7c0,0.1,0,0.3,0.1,0.4c1-1.2,6.6-2,13.2-1.7c6.6,0.3,12.1,1.5,13,2.8c0.1-0.1,0.1-0.2,0.2-0.4
		c0.1-1.4-5.8-2.9-13.1-3.2S239.2,289.3,239.1,290.7z"/>
	<path class="st8" d="M239.1,290.7c0,0.1,0,0.3,0.1,0.4c1-1.2,6.6-2,13.2-1.7c6.6,0.3,12.1,1.5,13,2.8c0.1-0.1,0.1-0.2,0.2-0.4
		c0.1-1.4-5.8-2.9-13.1-3.2S239.2,289.3,239.1,290.7z"/>
	<path class="st8" d="M239.2,291.1c0.9,1.3,6.4,2.5,13,2.8s12.2-0.5,13.2-1.7c-0.9-1.3-6.4-2.5-13-2.8S240.2,289.9,239.2,291.1z"/>
	<path class="st0" d="M241.9,289.7c-0.1,2.1,6.6,4.1,15,4.5c8.4,0.4,15.3-1.1,15.4-3.2s-6.6-4.1-15-4.5S242,287.6,241.9,289.7z"/>
	
		<rect x="255.2" y="273.2" transform="matrix(4.239879e-02 -0.9991 0.9991 4.239879e-02 -41.9142 533.1156)" class="st0" width="3.9" height="30.4"/>
	<path class="st0" d="M242,285.9c-0.1,2.1,6.6,4.1,15,4.5c8.4,0.4,15.3-1.1,15.4-3.2s-6.6-4.1-15-4.5S242.1,283.7,242,285.9z"/>
	<path class="st7" d="M242,285.9c-0.1,2.1,6.6,4.1,15,4.5c8.4,0.4,15.3-1.1,15.4-3.2s-6.6-4.1-15-4.5S242.1,283.7,242,285.9z"/>
	<path class="st0" d="M244,285.8c0,0.1,0,0.3,0.1,0.4c1-1.2,6.6-2,13.2-1.7s12.1,1.5,13,2.8c0.1-0.1,0.2-0.2,0.2-0.4
		c0.1-1.4-5.8-2.9-13.1-3.2S244,284.4,244,285.8z"/>
	<path class="st8" d="M244,285.8c0,0.1,0,0.3,0.1,0.4c1-1.2,6.6-2,13.2-1.7s12.1,1.5,13,2.8c0.1-0.1,0.2-0.2,0.2-0.4
		c0.1-1.4-5.8-2.9-13.1-3.2S244,284.4,244,285.8z"/>
	<path class="st8" d="M244.1,286.2c0.9,1.3,6.4,2.5,13,2.8s12.2-0.5,13.2-1.7c-0.9-1.3-6.4-2.5-13-2.8S245.1,284.9,244.1,286.2z"/>
	<path class="st0" d="M238.7,283.9c-0.1,2.1,6.6,4.1,15,4.5c8.4,0.4,15.3-1.1,15.4-3.2s-6.6-4.1-15-4.5S238.8,281.8,238.7,283.9z"/>
	
		<rect x="252" y="267.4" transform="matrix(4.239879e-02 -0.9991 0.9991 4.239879e-02 -39.1533 524.3161)" class="st0" width="3.9" height="30.4"/>
	<path class="st0" d="M238.8,280c-0.1,2.1,6.6,4.1,15,4.5c8.4,0.4,15.3-1.1,15.4-3.2s-6.6-4.1-15-4.5S238.9,277.9,238.8,280z"/>
	<path class="st7" d="M238.8,280c-0.1,2.1,6.6,4.1,15,4.5c8.4,0.4,15.3-1.1,15.4-3.2s-6.6-4.1-15-4.5S238.9,277.9,238.8,280z"/>
	<path class="st0" d="M240.8,280c0,0.1,0,0.3,0.1,0.4c1-1.2,6.6-2,13.2-1.7s12.1,1.5,13,2.8c0.1-0.1,0.1-0.2,0.2-0.4
		c0.1-1.4-5.8-2.9-13.1-3.2S240.8,278.5,240.8,280z"/>
	<path class="st8" d="M240.8,280c0,0.1,0,0.3,0.1,0.4c1-1.2,6.6-2,13.2-1.7s12.1,1.5,13,2.8c0.1-0.1,0.1-0.2,0.2-0.4
		c0.1-1.4-5.8-2.9-13.1-3.2S240.8,278.5,240.8,280z"/>
	<path class="st8" d="M240.9,280.3c0.9,1.3,6.4,2.5,13,2.8s12.2-0.5,13.2-1.7c-0.9-1.3-6.4-2.5-13-2.8S241.9,279.1,240.9,280.3z"/>
	<path class="st0" d="M272.2,279.7c0.1,2.1-6.6,4.1-15,4.5s-15.2-1.1-15.4-3.2s6.6-4.1,15-4.5C265.2,276.2,272.1,277.6,272.2,279.7z
		"/>
	
		<rect x="241.1" y="277.5" transform="matrix(0.9992 -3.996804e-02 3.996804e-02 0.9992 -10.9634 10.466)" class="st0" width="30.4" height="3.9"/>
	<path class="st0" d="M272.1,275.9c0.1,2.1-6.6,4.1-15,4.5s-15.3-1.1-15.4-3.2s6.6-4.1,15-4.5S272,273.8,272.1,275.9z"/>
	<path class="st7" d="M272.1,275.9c0.1,2.1-6.6,4.1-15,4.5s-15.3-1.1-15.4-3.2s6.6-4.1,15-4.5S272,273.8,272.1,275.9z"/>
	<path class="st0" d="M270.1,275.8c0,0.1,0,0.3-0.1,0.4c-1-1.2-6.6-2-13.2-1.7s-12.1,1.5-13,2.8c-0.1-0.1-0.1-0.2-0.2-0.4
		c-0.1-1.4,5.8-2.9,13.1-3.2S270.1,274.4,270.1,275.8z"/>
	<path class="st8" d="M270.1,275.8c0,0.1,0,0.3-0.1,0.4c-1-1.2-6.6-2-13.2-1.7s-12.1,1.5-13,2.8c-0.1-0.1-0.1-0.2-0.2-0.4
		c-0.1-1.4,5.8-2.9,13.1-3.2S270.1,274.4,270.1,275.8z"/>
	<path class="st8" d="M270,276.2c-0.9,1.3-6.4,2.5-13,2.8s-12.2-0.5-13.2-1.7c0.9-1.3,6.4-2.5,13-2.8S269,275,270,276.2z"/>
	<path class="st0" d="M275.4,273.9c0.1,2.1-6.6,4.1-15,4.5s-15.3-1.1-15.4-3.2s6.6-4.1,15-4.5S275.4,271.8,275.4,273.9z"/>
	
		<rect x="245" y="270.7" transform="matrix(0.9991 -4.239879e-02 4.239879e-02 0.9991 -11.3248 11.2757)" class="st0" width="30.4" height="3.9"/>
	<path class="st0" d="M275.3,270.1c0.1,2.1-6.6,4.1-15,4.5s-15.3-1.1-15.4-3.2s6.6-4.1,15-4.5S275.2,267.9,275.3,270.1z"/>
	<path class="st7" d="M275.3,270.1c0.1,2.1-6.6,4.1-15,4.5s-15.3-1.1-15.4-3.2s6.6-4.1,15-4.5S275.2,267.9,275.3,270.1z"/>
	<path class="st0" d="M273.3,270c0,0.1,0,0.3-0.1,0.4c-1-1.2-6.6-2-13.2-1.7s-12.1,1.5-13,2.8c-0.1-0.1-0.2-0.2-0.2-0.4
		c-0.1-1.4,5.8-2.9,13.1-3.2S273.3,268.6,273.3,270z"/>
	<path class="st8" d="M273.3,270c0,0.1,0,0.3-0.1,0.4c-1-1.2-6.6-2-13.2-1.7s-12.1,1.5-13,2.8c-0.1-0.1-0.2-0.2-0.2-0.4
		c-0.1-1.4,5.8-2.9,13.1-3.2S273.3,268.6,273.3,270z"/>
	<path class="st8" d="M273.2,270.4c-0.9,1.3-6.4,2.5-13,2.8s-12.2-0.5-13.2-1.7c0.9-1.3,6.4-2.5,13-2.8S272.2,269.1,273.2,270.4z"/>
	<path class="st0" d="M275,266.9c0.1,2.1-6.6,4.1-15,4.5s-15.3-1.1-15.4-3.2s6.6-4.1,15-4.5S274.9,264.8,275,266.9z"/>
	
		<rect x="244.5" y="263.7" transform="matrix(0.9991 -4.239879e-02 4.239879e-02 0.9991 -11.0281 11.2517)" class="st0" width="30.4" height="3.9"/>
	<path class="st0" d="M274.9,263c0.1,2.1-6.6,4.1-15,4.5s-15.3-1.1-15.4-3.2s6.6-4.1,15-4.5S274.8,260.9,274.9,263z"/>
	<path class="st7" d="M274.9,263c0.1,2.1-6.6,4.1-15,4.5s-15.3-1.1-15.4-3.2s6.6-4.1,15-4.5S274.8,260.9,274.9,263z"/>
	<path class="st0" d="M272.9,263c0,0.1,0,0.3-0.1,0.4c-1-1.2-6.6-2-13.2-1.7s-12.1,1.5-13,2.8c-0.1-0.1-0.1-0.2-0.2-0.4
		c-0.1-1.4,5.8-2.9,13.1-3.2S272.9,261.5,272.9,263z"/>
	<path class="st8" d="M272.9,263c0,0.1,0,0.3-0.1,0.4c-1-1.2-6.6-2-13.2-1.7s-12.1,1.5-13,2.8c-0.1-0.1-0.1-0.2-0.2-0.4
		c-0.1-1.4,5.8-2.9,13.1-3.2S272.9,261.5,272.9,263z"/>
	<path class="st8" d="M272.8,263.4c-0.9,1.3-6.4,2.5-13,2.8s-12.2-0.5-13.2-1.7c0.9-1.3,6.4-2.5,13-2.8S271.8,262.1,272.8,263.4z"/>
	<path class="st0" d="M278.2,261.1c0.1,2.1-6.6,4.1-15,4.5s-15.3-1.1-15.4-3.2s6.6-4.1,15-4.5S278.1,258.9,278.2,261.1z"/>
	
		<rect x="247.7" y="257.9" transform="matrix(0.9991 -4.239879e-02 4.239879e-02 0.9991 -10.7785 11.3809)" class="st0" width="30.4" height="3.9"/>
	<path class="st0" d="M278,257.2c0.1,2.1-6.6,4.1-15,4.5s-15.3-1.1-15.4-3.2s6.6-4.1,15-4.5S278,255.1,278,257.2z"/>
	<path class="st7" d="M278,257.2c0.1,2.1-6.6,4.1-15,4.5s-15.3-1.1-15.4-3.2s6.6-4.1,15-4.5S278,255.1,278,257.2z"/>
	<path class="st0" d="M276.1,257.1c0,0.1,0,0.3-0.1,0.4c-1-1.2-6.6-2-13.2-1.7s-12.1,1.5-13,2.8c-0.1-0.1-0.2-0.2-0.2-0.4
		c-0.1-1.4,5.8-2.9,13.2-3.2C270.1,254.7,276,255.7,276.1,257.1z"/>
	<path class="st8" d="M276.1,257.1c0,0.1,0,0.3-0.1,0.4c-1-1.2-6.6-2-13.2-1.7s-12.1,1.5-13,2.8c-0.1-0.1-0.2-0.2-0.2-0.4
		c-0.1-1.4,5.8-2.9,13.2-3.2C270.1,254.7,276,255.7,276.1,257.1z"/>
	<path class="st8" d="M276,257.5c-0.9,1.3-6.4,2.5-13,2.8s-12.2-0.5-13.2-1.7c0.9-1.3,6.4-2.5,13-2.8S275,256.3,276,257.5z"/>
	<path class="st0" d="M273.3,256.1c0.1,2.1-6.6,4.1-15,4.5s-15.3-1.1-15.3-3.2s6.6-4.1,15-4.5C266.4,252.6,273.2,254,273.3,256.1z"
		/>
	
		<rect x="242.9" y="252.9" transform="matrix(0.9991 -4.239879e-02 4.239879e-02 0.9991 -10.5726 11.171)" class="st0" width="30.4" height="3.9"/>
	<path class="st0" d="M273.2,252.3c0.1,2.1-6.6,4.1-15,4.5s-15.3-1.1-15.4-3.2s6.6-4.1,15-4.5S273.1,250.1,273.2,252.3z"/>
	<path class="st7" d="M273.2,252.3c0.1,2.1-6.6,4.1-15,4.5s-15.3-1.1-15.4-3.2s6.6-4.1,15-4.5S273.1,250.1,273.2,252.3z"/>
	<path class="st0" d="M271.2,252.2c0,0.1,0,0.3-0.1,0.4c-1-1.2-6.6-2-13.2-1.7s-12.1,1.5-13,2.8c-0.1-0.1-0.2-0.2-0.2-0.4
		c-0.1-1.4,5.8-2.9,13.1-3.2S271.2,250.8,271.2,252.2z"/>
	<path class="st8" d="M271.2,252.2c0,0.1,0,0.3-0.1,0.4c-1-1.2-6.6-2-13.2-1.7s-12.1,1.5-13,2.8c-0.1-0.1-0.2-0.2-0.2-0.4
		c-0.1-1.4,5.8-2.9,13.1-3.2S271.2,250.8,271.2,252.2z"/>
	<path class="st8" d="M271.1,252.6c-0.9,1.3-6.4,2.5-13,2.8s-12.2-0.5-13.2-1.7c0.9-1.3,6.4-2.5,13-2.8S270.1,251.3,271.1,252.6z"/>
	<path class="st0" d="M276.5,250.3c0.1,2.1-6.6,4.1-15,4.5s-15.3-1.1-15.4-3.2s6.6-4.1,15-4.5S276.4,248.2,276.5,250.3z"/>
	
		<rect x="246" y="247.1" transform="matrix(0.9991 -4.239879e-02 4.239879e-02 0.9991 -10.3234 11.3006)" class="st0" width="30.4" height="3.9"/>
	<path class="st0" d="M276.4,246.4c0.1,2.1-6.6,4.1-15,4.5s-15.3-1.1-15.4-3.2s6.6-4.1,15-4.5S276.3,244.3,276.4,246.4z"/>
	<path class="st7" d="M276.4,246.4c0.1,2.1-6.6,4.1-15,4.5s-15.3-1.1-15.4-3.2s6.6-4.1,15-4.5S276.3,244.3,276.4,246.4z"/>
	<path class="st0" d="M274.4,246.4c0,0.1,0,0.3-0.1,0.4c-1-1.2-6.6-2-13.2-1.7s-12.1,1.5-13,2.8c-0.1-0.1-0.1-0.2-0.2-0.4
		c-0.1-1.4,5.8-2.9,13.1-3.2S274.4,244.9,274.4,246.4z"/>
	<path class="st8" d="M274.4,246.4c0,0.1,0,0.3-0.1,0.4c-1-1.2-6.6-2-13.2-1.7s-12.1,1.5-13,2.8c-0.1-0.1-0.1-0.2-0.2-0.4
		c-0.1-1.4,5.8-2.9,13.1-3.2S274.4,244.9,274.4,246.4z"/>
	<path class="st8" d="M274.3,246.8c-0.9,1.3-6.4,2.5-13,2.8s-12.2-0.5-13.2-1.7c0.9-1.3,6.4-2.5,13-2.8S273.3,245.5,274.3,246.8z"/>
	<circle class="st0" cx="259.1" cy="233.1" r="13.7"/>
	<circle class="st0" cx="260.6" cy="233.8" r="13.7"/>
	<circle class="st7" cx="260.6" cy="233.8" r="13.7"/>
	<path class="st0" d="M269.9,238c-2.3,5.2-8.4,7.4-13.6,5.1c-5.2-2.3-7.4-8.4-5.1-13.6c2.3-5.1,8.4-7.4,13.6-5.1
		C270,226.8,272.3,232.8,269.9,238z"/>
	<path class="st10" d="M265.3,236.8c-0.2-0.6-0.5-1.2-1-1.6c0.5,0,1-0.2,1.5-0.5c0.4-0.3,0.8-0.7,1-1.2c0.4-0.8,0.3-1.7-0.1-2.5
		c-0.4-0.7-1-1.2-1.7-1.6l0.4-0.8l-1.2-0.5l-0.3,0.7l-1.2-0.5l0.3-0.7l-1.2-0.5l-0.3,0.7l-2.6-1.2l-4.8,10.6l2.6,1.2l-0.3,0.8
		l1.2,0.5l0.3-0.8l1.2,0.5l-0.3,0.8l1.2,0.5l0.4-0.8c0.9,0.4,1.9,0.5,2.8,0.4c0.9-0.2,1.7-0.8,2-1.6
		C265.3,238.1,265.4,237.4,265.3,236.8z M260.5,229.5l2.4,1.1c0.5,0.2,0.9,0.5,1.2,0.9c0.2,0.4,0.2,0.8,0,1.1
		c-0.1,0.4-0.5,0.7-0.9,0.7c-0.5,0.1-1.1-0.1-1.5-0.3l-2.4-1.1L260.5,229.5z M261.8,238.1c-0.6,0-1.1-0.1-1.6-0.4l-2.9-1.3l1.2-2.6
		l2.9,1.3c1.3,0.6,1.7,1.3,1.4,2.2C262.6,237.7,262.2,238,261.8,238.1L261.8,238.1z"/>
	<path class="st0" d="M389.7,311.3c-0.3,1.2-4.5,1.3-9.5,0s-8.7-3.2-8.4-4.5s4.6-1.3,9.5,0S390,310.1,389.7,311.3z"/>
	
		<rect x="379.9" y="298.8" transform="matrix(0.2429 -0.97 0.97 0.2429 -10.2497 602.8274)" class="st0" width="2.3" height="18.4"/>
	<path class="st0" d="M390.3,309.1c-0.3,1.2-4.6,1.3-9.5,0s-8.6-3.2-8.3-4.5s4.5-1.3,9.5,0S390.6,307.8,390.3,309.1z"/>
	<path class="st7" d="M390.3,309.1c-0.3,1.2-4.6,1.3-9.5,0s-8.6-3.2-8.3-4.5s4.5-1.3,9.5,0S390.6,307.8,390.3,309.1z"/>
	<path class="st0" d="M389.1,308.7c0,0.1-0.1,0.2-0.1,0.2c-0.4-0.9-3.5-2.3-7.4-3.2s-7.3-1.2-8-0.6c0-0.1,0-0.2,0-0.2
		c0.2-0.9,3.9-0.7,8.2,0.4S389.4,307.9,389.1,308.7z"/>
	<path class="st8" d="M389.1,308.7c0,0.1-0.1,0.2-0.1,0.2c-0.4-0.9-3.5-2.3-7.4-3.2s-7.3-1.2-8-0.6c0-0.1,0-0.2,0-0.2
		c0.2-0.9,3.9-0.7,8.2,0.4S389.4,307.9,389.1,308.7z"/>
	<path class="st8" d="M389,308.9c-0.8,0.6-4.1,0.4-8-0.6s-7-2.4-7.4-3.2c0.8-0.6,4.1-0.4,8,0.6S388.6,308,389,308.9z"/>
	<path class="st0" d="M398.3,315.4c0.1,1.3-4,2.5-9.1,2.7s-9.2-0.6-9.3-1.9s4-2.5,9.1-2.7S398.2,314.1,398.3,315.4z"/>
	
		<rect x="379.8" y="313.5" transform="matrix(0.9991 -4.239879e-02 4.239879e-02 0.9991 -12.9921 16.7767)" class="st0" width="18.4" height="2.3"/>
	<path class="st0" d="M398.2,313.1c0.1,1.3-4,2.5-9.1,2.7s-9.2-0.6-9.3-1.9s4-2.5,9.1-2.7S398.1,311.8,398.2,313.1z"/>
	<path class="st7" d="M398.2,313.1c0.1,1.3-4,2.5-9.1,2.7s-9.2-0.6-9.3-1.9s4-2.5,9.1-2.7S398.1,311.8,398.2,313.1z"/>
	<path class="st0" d="M397,313.1c0,0.1,0,0.2-0.1,0.2c-0.6-0.8-4-1.2-8-1s-7.3,0.9-7.9,1.7c-0.1-0.1-0.1-0.1-0.1-0.2
		c0-0.9,3.5-1.7,7.9-1.9S397,312.2,397,313.1z"/>
	<path class="st8" d="M397,313.1c0,0.1,0,0.2-0.1,0.2c-0.6-0.8-4-1.2-8-1s-7.3,0.9-7.9,1.7c-0.1-0.1-0.1-0.1-0.1-0.2
		c0-0.9,3.5-1.7,7.9-1.9S397,312.2,397,313.1z"/>
	<path class="st8" d="M396.9,313.3c-0.5,0.8-3.9,1.5-7.9,1.7s-7.4-0.3-8-1c0.5-0.8,3.9-1.5,7.9-1.7S396.3,312.5,396.9,313.3z"/>
	<circle class="st0" cx="377.1" cy="303.3" r="13.7"/>
	<path class="st0" d="M388.6,313.6c-5,5.6-13.7,6.1-19.3,1.1c-5.6-5-6.1-13.7-1.1-19.3s13.7-6.1,19.3-1.1c0,0,0,0,0,0
		C393.2,299.3,393.7,307.9,388.6,313.6z"/>
	<path class="st7" d="M388.6,313.6c-5,5.6-13.7,6.1-19.3,1.1c-5.6-5-6.1-13.7-1.1-19.3s13.7-6.1,19.3-1.1c0,0,0,0,0,0
		C393.2,299.3,393.7,307.9,388.6,313.6z"/>
	<path class="st0" d="M386,311.3c-3.8,4.2-10.3,4.6-14.5,0.8c-4.2-3.8-4.6-10.3-0.8-14.5s10.3-4.6,14.5-0.8c0,0,0,0,0,0
		C389.4,300.6,389.8,307.1,386,311.3C386,311.3,386,311.3,386,311.3z"/>
	<g class="st11">
		<path class="st2" d="M380.3,309.1c-1.2,2-3.4,2-5.6,0.4l-1.3,1.4l-1.3-1.1l1.3-1.4c-1-1.1-1.8-2.3-2.2-3.7l2-1.1
			c0.3,1.2,0.9,2.3,1.8,3.2l2-2.1c-0.9-1.5-1.9-3.2-0.8-5c1.2-2,3.4-2,5.7-0.3l1.3-1.4l1.3,1.1l-1.3,1.4c0.8,0.8,1.4,1.8,1.8,2.9
			l-1.9,1.1c-0.3-0.9-0.8-1.8-1.4-2.5l-2,2.2C380.4,305.8,381.3,307.4,380.3,309.1z M378.5,302.8l1.7-1.8c-0.8-0.5-1.5-0.4-1.9,0.1
			C378.1,301.7,378.2,302.4,378.5,302.8L378.5,302.8z M378,307.7c0.2-0.5,0.1-1.1-0.2-1.5l-1.6,1.7C377,308.3,377.6,308.2,378,307.7
			L378,307.7z"/>
	</g>
	<path class="st0" d="M208.8,316.7c-0.1,1.3,4,2.5,9.1,2.7s9.2-0.6,9.3-1.9s-4-2.5-9.1-2.7S208.8,315.4,208.8,316.7z"/>
	
		<rect x="216.8" y="306.7" transform="matrix(4.239879e-02 -0.9991 0.9991 4.239879e-02 -106.8798 520.3558)" class="st0" width="2.3" height="18.4"/>
	<path class="st0" d="M208.9,314.4c-0.1,1.3,4,2.5,9.1,2.7s9.2-0.6,9.3-1.9s-4-2.5-9.1-2.7S208.9,313.1,208.9,314.4z"/>
	<path class="st7" d="M208.9,314.4c-0.1,1.3,4,2.5,9.1,2.7s9.2-0.6,9.3-1.9s-4-2.5-9.1-2.7S208.9,313.1,208.9,314.4z"/>
	<path class="st0" d="M210.1,314.3c0,0.1,0,0.2,0.1,0.2c0.6-0.8,4-1.2,8-1s7.3,0.9,7.9,1.7c0.1-0.1,0.1-0.1,0.1-0.2
		c0-0.9-3.5-1.7-7.9-1.9S210.1,313.5,210.1,314.3z"/>
	<path class="st8" d="M210.1,314.3c0,0.1,0,0.2,0.1,0.2c0.6-0.8,4-1.2,8-1s7.3,0.9,7.9,1.7c0.1-0.1,0.1-0.1,0.1-0.2
		c0-0.9-3.5-1.7-7.9-1.9S210.1,313.5,210.1,314.3z"/>
	<path class="st8" d="M210.1,314.6c0.6,0.8,3.9,1.5,7.9,1.7s7.4-0.3,8-1c-0.5-0.8-3.8-1.5-7.9-1.7S210.7,313.8,210.1,314.6z"/>
	<path class="st0" d="M206.9,313.2c0,1.3,4,2.5,9.1,2.7s9.2-0.6,9.3-1.9s-4-2.5-9.1-2.7S206.9,311.9,206.9,313.2z"/>
	
		<rect x="214.9" y="303.2" transform="matrix(4.239879e-02 -0.9991 0.9991 4.239879e-02 -105.1981 515.0084)" class="st0" width="2.3" height="18.4"/>
	<path class="st0" d="M207,310.9c0,1.3,4,2.5,9.1,2.7s9.2-0.6,9.3-1.9s-4-2.5-9.1-2.7S207,309.6,207,310.9z"/>
	<path class="st7" d="M207,310.9c0,1.3,4,2.5,9.1,2.7s9.2-0.6,9.3-1.9s-4-2.5-9.1-2.7S207,309.6,207,310.9z"/>
	<path class="st0" d="M208.1,310.8c0,0.1,0,0.2,0.1,0.2c0.6-0.8,4-1.2,8-1s7.3,0.9,7.9,1.7c0.1-0.1,0.1-0.1,0.1-0.2
		c0-0.9-3.5-1.7-7.9-1.9S208.2,309.9,208.1,310.8z"/>
	<path class="st8" d="M208.1,310.8c0,0.1,0,0.2,0.1,0.2c0.6-0.8,4-1.2,8-1s7.3,0.9,7.9,1.7c0.1-0.1,0.1-0.1,0.1-0.2
		c0-0.9-3.5-1.7-7.9-1.9S208.2,309.9,208.1,310.8z"/>
	<path class="st8" d="M208.2,311c0.6,0.8,3.9,1.5,7.9,1.7s7.4-0.3,8-1c-0.5-0.8-3.8-1.5-7.9-1.7S208.8,310.3,208.2,311z"/>
	<path class="st0" d="M207.1,308.9c0,1.3,4,2.5,9.1,2.7s9.2-0.6,9.3-1.9s-4-2.5-9.1-2.7S207.2,307.7,207.1,308.9z"/>
	
		<rect x="215.1" y="299" transform="matrix(4.239879e-02 -0.9991 0.9991 4.239879e-02 -100.7283 511.1928)" class="st0" width="2.3" height="18.4"/>
	<path class="st0" d="M207.2,306.6c0,1.3,4,2.5,9.1,2.7s9.2-0.6,9.3-1.9s-4-2.5-9.1-2.7S207.3,305.3,207.2,306.6z"/>
	<path class="st7" d="M207.2,306.6c0,1.3,4,2.5,9.1,2.7s9.2-0.6,9.3-1.9s-4-2.5-9.1-2.7S207.3,305.3,207.2,306.6z"/>
	<path class="st0" d="M208.4,306.6c0,0.1,0,0.2,0.1,0.2c0.6-0.8,4-1.2,8-1s7.3,0.9,7.9,1.7c0.1-0.1,0.1-0.1,0.1-0.2
		c0-0.9-3.5-1.7-7.9-1.9S208.4,305.7,208.4,306.6z"/>
	<path class="st8" d="M208.4,306.6c0,0.1,0,0.2,0.1,0.2c0.6-0.8,4-1.2,8-1s7.3,0.9,7.9,1.7c0.1-0.1,0.1-0.1,0.1-0.2
		c0-0.9-3.5-1.7-7.9-1.9S208.4,305.7,208.4,306.6z"/>
	<path class="st8" d="M208.4,306.8c0.6,0.8,3.9,1.5,7.9,1.7s7.4-0.3,8-1c-0.5-0.8-3.8-1.5-7.9-1.7S209.1,306.1,208.4,306.8z"/>
	<path class="st0" d="M205.2,305.4c0,1.3,4,2.5,9.1,2.7s9.2-0.6,9.3-1.9s-4-2.5-9.1-2.7S205.2,304.1,205.2,305.4z"/>
	
		<rect x="213.2" y="295.4" transform="matrix(4.239879e-02 -0.9991 0.9991 4.239879e-02 -99.0573 505.9142)" class="st0" width="2.3" height="18.4"/>
	<path class="st0" d="M205.3,303.1c-0.1,1.3,4,2.5,9.1,2.7s9.2-0.6,9.3-1.9s-4-2.5-9.1-2.7S205.3,301.8,205.3,303.1z"/>
	<path class="st7" d="M205.3,303.1c-0.1,1.3,4,2.5,9.1,2.7s9.2-0.6,9.3-1.9s-4-2.5-9.1-2.7S205.3,301.8,205.3,303.1z"/>
	<path class="st0" d="M206.4,303.1c0,0.1,0,0.2,0.1,0.2c0.6-0.8,4-1.2,8-1s7.3,0.9,7.9,1.7c0.1-0.1,0.1-0.1,0.1-0.2
		c0-0.9-3.5-1.8-7.9-1.9S206.5,302.2,206.4,303.1z"/>
	<path class="st8" d="M206.4,303.1c0,0.1,0,0.2,0.1,0.2c0.6-0.8,4-1.2,8-1s7.3,0.9,7.9,1.7c0.1-0.1,0.1-0.1,0.1-0.2
		c0-0.9-3.5-1.8-7.9-1.9S206.5,302.2,206.4,303.1z"/>
	<path class="st8" d="M206.5,303.3c0.6,0.8,3.9,1.5,7.9,1.7s7.4-0.3,8-1c-0.5-0.8-3.8-1.5-7.9-1.7S207.1,302.5,206.5,303.3z"/>
	<path class="st0" d="M208.1,302.4c-0.1,1.3,4,2.5,9.1,2.7s9.2-0.6,9.3-1.9s-4-2.5-9.1-2.7S208.2,301.1,208.1,302.4z"/>
	
		<rect x="216.2" y="292.5" transform="matrix(4.239879e-02 -0.9991 0.9991 4.239879e-02 -93.2536 505.9821)" class="st0" width="2.3" height="18.4"/>
	<path class="st0" d="M208.2,300.1c-0.1,1.3,4,2.5,9.1,2.7s9.2-0.6,9.3-1.9s-4-2.5-9.1-2.7S208.3,298.8,208.2,300.1z"/>
	<path class="st7" d="M208.2,300.1c-0.1,1.3,4,2.5,9.1,2.7s9.2-0.6,9.3-1.9s-4-2.5-9.1-2.7S208.3,298.8,208.2,300.1z"/>
	<path class="st0" d="M209.4,300.1c0,0.1,0,0.2,0.1,0.2c0.6-0.8,4-1.2,8-1s7.3,0.9,7.9,1.7c0.1-0.1,0.1-0.1,0.1-0.2
		c0-0.9-3.5-1.7-7.9-1.9S209.4,299.2,209.4,300.1z"/>
	<path class="st8" d="M209.4,300.1c0,0.1,0,0.2,0.1,0.2c0.6-0.8,4-1.2,8-1s7.3,0.9,7.9,1.7c0.1-0.1,0.1-0.1,0.1-0.2
		c0-0.9-3.5-1.7-7.9-1.9S209.4,299.2,209.4,300.1z"/>
	<path class="st8" d="M209.5,300.3c0.5,0.8,3.9,1.5,7.9,1.7s7.4-0.3,8-1c-0.5-0.8-3.9-1.5-7.9-1.7S210.1,299.6,209.5,300.3z"/>
	<path class="st0" d="M195.2,316.5c0.3,1.2,4.6,1.3,9.5,0s8.6-3.2,8.3-4.5s-4.6-1.3-9.5,0S194.9,315.3,195.2,316.5z"/>
	<rect x="194.6" y="312" transform="matrix(0.97 -0.2429 0.2429 0.97 -69.9653 58.8944)" class="st0" width="18.4" height="2.3"/>
	<path class="st0" d="M194.6,314.2c0.3,1.2,4.6,1.3,9.5,0s8.7-3.2,8.3-4.5s-4.6-1.3-9.5,0S194.3,313,194.6,314.2z"/>
	<path class="st7" d="M194.6,314.2c0.3,1.2,4.6,1.3,9.5,0s8.7-3.2,8.3-4.5s-4.6-1.3-9.5,0S194.3,313,194.6,314.2z"/>
	<path class="st0" d="M195.7,313.9c0,0.1,0.1,0.1,0.1,0.2c0.4-0.9,3.5-2.3,7.4-3.2s7.3-1.2,8-0.6c0-0.1,0-0.2,0-0.2
		c-0.2-0.8-3.9-0.7-8.2,0.4S195.5,313,195.7,313.9z"/>
	<path class="st8" d="M195.7,313.9c0,0.1,0.1,0.1,0.1,0.2c0.4-0.9,3.5-2.3,7.4-3.2s7.3-1.2,8-0.6c0-0.1,0-0.2,0-0.2
		c-0.2-0.8-3.9-0.7-8.2,0.4S195.5,313,195.7,313.9z"/>
	<path class="st8" d="M195.9,314.1c0.8,0.6,4.1,0.4,8-0.6s7-2.4,7.4-3.2c-0.8-0.6-4.1-0.4-8,0.6S196.2,313.2,195.9,314.1z"/>
	<path class="st0" d="M186.7,316.7c0,1.3,4,2.5,9.1,2.7s9.2-0.6,9.3-1.9s-4-2.5-9.1-2.7S186.7,315.4,186.7,316.7z"/>
	
		<rect x="194.7" y="306.7" transform="matrix(4.239879e-02 -0.9991 0.9991 4.239879e-02 -128.0392 498.2197)" class="st0" width="2.3" height="18.4"/>
	<path class="st0" d="M186.8,314.4c-0.1,1.3,4,2.5,9.1,2.7s9.2-0.6,9.3-1.9s-4-2.5-9.1-2.7S186.8,313.1,186.8,314.4z"/>
	<path class="st7" d="M186.8,314.4c-0.1,1.3,4,2.5,9.1,2.7s9.2-0.6,9.3-1.9s-4-2.5-9.1-2.7S186.8,313.1,186.8,314.4z"/>
	<path class="st0" d="M187.9,314.3c0,0.1,0,0.2,0.1,0.2c0.6-0.8,4-1.2,8-1s7.3,0.9,7.9,1.7c0.1-0.1,0.1-0.1,0.1-0.2
		c0-0.9-3.5-1.7-7.9-1.9S188,313.5,187.9,314.3z"/>
	<path class="st8" d="M187.9,314.3c0,0.1,0,0.2,0.1,0.2c0.6-0.8,4-1.2,8-1s7.3,0.9,7.9,1.7c0.1-0.1,0.1-0.1,0.1-0.2
		c0-0.9-3.5-1.7-7.9-1.9S188,313.5,187.9,314.3z"/>
	<path class="st8" d="M188,314.6c0.6,0.8,3.9,1.5,7.9,1.7s7.4-0.3,8-1c-0.5-0.8-3.8-1.5-7.9-1.7S188.6,313.8,188,314.6z"/>
	<path class="st0" d="M281.5,316.6c-0.1,1.3,4.1,2.6,9.3,2.8s9.5-0.7,9.5-2s-4.1-2.6-9.3-2.8S281.5,315.3,281.5,316.6z"/>
	
		<rect x="289.7" y="306.3" transform="matrix(4.239879e-02 -0.9991 0.9991 4.239879e-02 -36.8892 593.0406)" class="st0" width="2.4" height="18.9"/>
	<path class="st0" d="M281.6,314.2c-0.1,1.3,4.1,2.6,9.3,2.8s9.5-0.7,9.5-2s-4.1-2.6-9.3-2.8S281.6,312.9,281.6,314.2z"/>
	<path class="st7" d="M281.6,314.2c-0.1,1.3,4.1,2.6,9.3,2.8s9.5-0.7,9.5-2s-4.1-2.6-9.3-2.8S281.6,312.9,281.6,314.2z"/>
	<path class="st0" d="M282.8,314.2c0,0.1,0,0.2,0.1,0.2c0.6-0.8,4.1-1.2,8.2-1.1s7.5,0.9,8.1,1.8c0.1-0.1,0.1-0.1,0.1-0.2
		c0-0.9-3.6-1.8-8.2-2S282.8,313.3,282.8,314.2z"/>
	<path class="st8" d="M282.8,314.2c0,0.1,0,0.2,0.1,0.2c0.6-0.8,4.1-1.2,8.2-1.1s7.5,0.9,8.1,1.8c0.1-0.1,0.1-0.1,0.1-0.2
		c0-0.9-3.6-1.8-8.2-2S282.8,313.3,282.8,314.2z"/>
	<path class="st8" d="M282.8,314.4c0.6,0.8,4,1.6,8.1,1.8s7.6-0.3,8.2-1.1c-0.5-0.8-4-1.6-8.1-1.8S283.5,313.6,282.8,314.4z"/>
	<path class="st0" d="M279.5,313c0,1.3,4.1,2.6,9.3,2.8s9.5-0.7,9.5-2s-4.1-2.6-9.3-2.8S279.5,311.7,279.5,313z"/>
	
		<rect x="287.8" y="302.7" transform="matrix(4.239879e-02 -0.9991 0.9991 4.239879e-02 -35.1847 587.6284)" class="st0" width="2.4" height="18.9"/>
	<path class="st0" d="M279.6,310.6c-0.1,1.3,4.1,2.6,9.3,2.8s9.5-0.7,9.5-2s-4.1-2.6-9.3-2.8S279.6,309.3,279.6,310.6z"/>
	<path class="st7" d="M279.6,310.6c-0.1,1.3,4.1,2.6,9.3,2.8s9.5-0.7,9.5-2s-4.1-2.6-9.3-2.8S279.6,309.3,279.6,310.6z"/>
	<path class="st0" d="M280.8,310.5c0,0.1,0,0.2,0.1,0.2c0.6-0.8,4.1-1.2,8.2-1.1s7.5,0.9,8.1,1.8c0.1-0.1,0.1-0.1,0.1-0.2
		c0-0.9-3.6-1.8-8.2-2S280.8,309.7,280.8,310.5z"/>
	<path class="st8" d="M280.8,310.5c0,0.1,0,0.2,0.1,0.2c0.6-0.8,4.1-1.2,8.2-1.1s7.5,0.9,8.1,1.8c0.1-0.1,0.1-0.1,0.1-0.2
		c0-0.9-3.6-1.8-8.2-2S280.8,309.7,280.8,310.5z"/>
	<path class="st8" d="M280.9,310.8c0.6,0.8,4,1.6,8.1,1.8s7.6-0.3,8.2-1.1c-0.5-0.8-4-1.6-8.1-1.8S281.5,310,280.9,310.8z"/>
	<path class="st0" d="M283.7,310.3c-0.1,1.3,4.1,2.6,9.3,2.8s9.5-0.7,9.5-2s-4.1-2.6-9.3-2.8S283.8,309,283.7,310.3z"/>
	
		<rect x="292" y="300" transform="matrix(4.239879e-02 -0.9991 0.9991 4.239879e-02 -28.4345 589.2914)" class="st0" width="2.4" height="18.9"/>
	<path class="st0" d="M283.8,307.9c-0.1,1.3,4.1,2.6,9.3,2.8s9.5-0.7,9.5-2s-4.1-2.6-9.3-2.8S283.9,306.6,283.8,307.9z"/>
	<path class="st7" d="M283.8,307.9c-0.1,1.3,4.1,2.6,9.3,2.8s9.5-0.7,9.5-2s-4.1-2.6-9.3-2.8S283.9,306.6,283.8,307.9z"/>
	<path class="st0" d="M285,307.9c0,0.1,0,0.2,0.1,0.2c0.6-0.8,4.1-1.2,8.2-1.1s7.5,0.9,8.1,1.8c0.1-0.1,0.1-0.1,0.1-0.2
		c0-0.9-3.6-1.8-8.2-2S285.1,307,285,307.9z"/>
	<path class="st8" d="M285,307.9c0,0.1,0,0.2,0.1,0.2c0.6-0.8,4.1-1.2,8.2-1.1s7.5,0.9,8.1,1.8c0.1-0.1,0.1-0.1,0.1-0.2
		c0-0.9-3.6-1.8-8.2-2S285.1,307,285,307.9z"/>
	<path class="st8" d="M285.1,308.1c0.6,0.8,4,1.6,8.1,1.8s7.6-0.3,8.2-1.1c-0.5-0.8-4-1.6-8.1-1.8S285.7,307.3,285.1,308.1z"/>
	<path class="st0" d="M283.8,306.7c-0.1,1.3,4.1,2.6,9.3,2.8s9.5-0.7,9.5-2s-4.1-2.6-9.3-2.8S283.8,305.4,283.8,306.7z"/>
	
		<rect x="291.7" y="295.2" transform="matrix(3.996804e-02 -0.9992 0.9992 3.996804e-02 -23.1745 585.1324)" class="st0" width="2.4" height="18.9"/>
	<path class="st0" d="M283.9,304.3c-0.1,1.3,4.1,2.6,9.3,2.8s9.5-0.7,9.5-2s-4.1-2.6-9.3-2.8S283.9,303,283.9,304.3z"/>
	<path class="st7" d="M283.9,304.3c-0.1,1.3,4.1,2.6,9.3,2.8s9.5-0.7,9.5-2s-4.1-2.6-9.3-2.8S283.9,303,283.9,304.3z"/>
	<path class="st0" d="M285.1,304.3c0,0.1,0,0.2,0.1,0.2c0.6-0.8,4.1-1.2,8.2-1.1s7.5,0.9,8.1,1.8c0.1-0.1,0.1-0.1,0.1-0.2
		c0-0.9-3.6-1.8-8.2-2S285.1,303.4,285.1,304.3z"/>
	<path class="st8" d="M285.1,304.3c0,0.1,0,0.2,0.1,0.2c0.6-0.8,4.1-1.2,8.2-1.1s7.5,0.9,8.1,1.8c0.1-0.1,0.1-0.1,0.1-0.2
		c0-0.9-3.6-1.8-8.2-2S285.1,303.4,285.1,304.3z"/>
	<path class="st8" d="M285.2,304.5c0.6,0.8,4,1.6,8.1,1.8s7.6-0.3,8.2-1.1c-0.5-0.8-4-1.6-8.1-1.8S285.8,303.7,285.2,304.5z"/>
	<path class="st0" d="M279.9,303.7c-0.1,1.3,4.1,2.6,9.3,2.8s9.5-0.7,9.5-2s-4.1-2.6-9.3-2.8S280,302.4,279.9,303.7z"/>
	
		<rect x="288.2" y="293.5" transform="matrix(4.257321e-02 -0.9991 0.9991 4.257321e-02 -25.5963 579.1884)" class="st0" width="2.4" height="18.9"/>
	<path class="st0" d="M280,301.3c-0.1,1.3,4.1,2.6,9.3,2.8s9.5-0.7,9.5-2s-4.1-2.6-9.3-2.8S280.1,300,280,301.3z"/>
	<path class="st7" d="M280,301.3c-0.1,1.3,4.1,2.6,9.3,2.8s9.5-0.7,9.5-2s-4.1-2.6-9.3-2.8S280.1,300,280,301.3z"/>
	<path class="st0" d="M281.2,301.3c0,0.1,0,0.2,0.1,0.2c0.6-0.8,4.1-1.2,8.2-1s7.5,0.9,8.1,1.7c0.1-0.1,0.1-0.1,0.1-0.2
		c0-0.9-3.6-1.8-8.2-2S281.2,300.4,281.2,301.3z"/>
	<path class="st8" d="M281.2,301.3c0,0.1,0,0.2,0.1,0.2c0.6-0.8,4.1-1.2,8.2-1s7.5,0.9,8.1,1.7c0.1-0.1,0.1-0.1,0.1-0.2
		c0-0.9-3.6-1.8-8.2-2S281.2,300.4,281.2,301.3z"/>
	<path class="st8" d="M281.3,301.5c0.6,0.8,4,1.6,8.1,1.8s7.6-0.3,8.2-1.1c-0.5-0.8-4-1.6-8.1-1.7S281.9,300.8,281.3,301.5z"/>
	<path class="st0" d="M304.3,310.9c-0.5,1.2,2.7,3.9,7.3,6s8.8,3,9.3,1.8s-2.7-3.9-7.3-6S304.8,309.8,304.3,310.9z"/>
	
		<rect x="311.9" y="304.6" transform="matrix(0.4253 -0.905 0.905 0.4253 -104.0937 463.6896)" class="st0" width="2.3" height="18.4"/>
	<path class="st0" d="M305.2,308.8c-0.5,1.2,2.7,3.9,7.3,6s8.8,3,9.3,1.8s-2.7-3.9-7.3-6S305.8,307.7,305.2,308.8z"/>
	<path class="st7" d="M305.2,308.8c-0.5,1.2,2.7,3.9,7.3,6s8.8,3,9.3,1.8s-2.7-3.9-7.3-6S305.8,307.7,305.2,308.8z"/>
	<path class="st0" d="M306.3,309.2c0,0.1,0,0.2,0,0.2c0.9-0.5,4.1,0.4,7.8,2.1s6.4,3.7,6.6,4.6c0.1,0,0.1-0.1,0.2-0.2
		c0.4-0.8-2.6-3-6.6-4.9S306.7,308.5,306.3,309.2z"/>
	<path class="st8" d="M306.3,309.2c0,0.1,0,0.2,0,0.2c0.9-0.5,4.1,0.4,7.8,2.1s6.4,3.7,6.6,4.6c0.1,0,0.1-0.1,0.2-0.2
		c0.4-0.8-2.6-3-6.6-4.9S306.7,308.5,306.3,309.2z"/>
	<path class="st8" d="M306.3,309.5c0.2,1,3,2.9,6.6,4.6s6.9,2.6,7.8,2.1c-0.2-1-3-2.9-6.6-4.6S307.2,309,306.3,309.5z"/>
	<path class="st0" d="M294.6,315.1c0,1.3,4,2.5,9.1,2.7s9.2-0.6,9.3-1.9s-4-2.5-9.1-2.7S294.7,313.8,294.6,315.1z"/>
	
		<rect x="302.7" y="305.1" transform="matrix(4.239879e-02 -0.9991 0.9991 4.239879e-02 -23.0158 604.4686)" class="st0" width="2.3" height="18.4"/>
	<path class="st0" d="M294.7,312.7c0,1.3,4,2.5,9.1,2.7s9.2-0.7,9.3-1.9s-4-2.5-9.1-2.7S294.8,311.4,294.7,312.7z"/>
	<path class="st7" d="M294.7,312.7c0,1.3,4,2.5,9.1,2.7s9.2-0.7,9.3-1.9s-4-2.5-9.1-2.7S294.8,311.4,294.7,312.7z"/>
	<path class="st0" d="M295.9,312.7c0,0.1,0,0.2,0.1,0.2c0.6-0.8,4-1.2,8-1s7.3,0.9,7.9,1.7c0.1-0.1,0.1-0.1,0.1-0.2
		c0-0.9-3.5-1.7-7.9-1.9S295.9,311.8,295.9,312.7z"/>
	<path class="st8" d="M295.9,312.7c0,0.1,0,0.2,0.1,0.2c0.6-0.8,4-1.2,8-1s7.3,0.9,7.9,1.7c0.1-0.1,0.1-0.1,0.1-0.2
		c0-0.9-3.5-1.7-7.9-1.9S295.9,311.8,295.9,312.7z"/>
	<path class="st8" d="M296,312.9c0.5,0.8,3.9,1.5,7.9,1.7s7.4-0.3,8-1c-0.5-0.8-3.8-1.5-7.9-1.7S296.6,312.1,296,312.9z"/>
</g>
<g id="freepik--Character--inject-109">
	<g id="freepik--Character--inject-2--inject-109">
		<path class="st12" d="M245,62.5c0.3,1.2,0.5,2.3,0.8,3.4s0.6,2.2,0.9,3.3c0.6,2.2,1.4,4.4,2.2,6.6c1.7,4.6,3.9,8.9,6.8,12.9
			c0.8,1.1,1.8,2.2,2.8,3.1c1.1,1.1,2.4,2,3.8,2.7c2.7,1.3,5.7,1.9,8.6,1.7c2.6-0.2,5.2-0.8,7.6-1.8c1.1-0.5,2.2-1,3.3-1.6
			c0.5-0.3,1.1-0.6,1.6-1c0.5-0.4,1-0.7,1.6-1.1l-2.7-4.7l-1.4,0.4l-1.5,0.4c-1,0.2-2,0.4-3,0.5c-1.8,0.3-3.6,0.3-5.5,0.1
			c-1.5-0.1-2.8-0.6-4.1-1.5c-0.5-0.4-1-0.8-1.4-1.3c-0.5-0.6-1-1.3-1.5-2c-1-1.6-1.9-3.3-2.6-5c-0.8-1.8-1.5-3.7-2.2-5.7
			s-1.3-4-1.9-6l-0.9-3c-0.3-1-0.6-2.1-0.8-2.9L245,62.5z"/>
		<path class="st0" d="M244.1,56.5c4.5-5.8,11.4-3.7,15.3,5.5c2.1,4.9,3.8,9.9,5.1,15.1l-16.1,5.7C244.1,74.1,239.4,62.4,244.1,56.5
			z"/>
		<path class="st13" d="M244.1,56.5c4.5-5.8,11.4-3.7,15.3,5.5c2.1,4.9,3.8,9.9,5.1,15.1l-16.1,5.7
			C244.1,74.1,239.4,62.4,244.1,56.5z"/>
		<path class="st5" d="M250.8,66.1c-1.3-0.9-4.1,4.4-5.3,10.5c0.9,2.2,1.8,4.2,2.8,6.1l9.7-3.4C256.4,73.6,253.8,68.1,250.8,66.1z"
			/>
		<path class="st12" d="M283.1,83.7l3.5-1.9l1.2,7.9c0,0-5.9,3.6-7.6,0.6l0.2-2C280.6,86.5,281.6,84.8,283.1,83.7z"/>
		<polygon class="st12" points="291,81.4 294.1,87.8 287.8,89.7 286.6,81.8 		"/>
		<path class="st0" d="M244,51.3l-8.2-1.2L225.5,51c-3.2,0.3-5.8,2.7-6.4,5.8c-1.2,7.5-1.8,15.1-2.1,22.7c-0.4,8.6,0.6,21.2,2,32.6
			l34.4-4.2c0.3-30,2.6-39.3,2.9-47.2c0.1-3.2-1.9-6.1-5-7.1L244,51.3z"/>
		<polygon class="st12" points="254.4,200.1 261.7,202.1 268.3,184.9 261,182.9 		"/>
		<path class="st14" d="M265,199.8c-0.6-0.8-1.4-1.3-2.4-1.4l-7.5-1.5c-0.3-0.1-0.7,0.1-0.8,0.5l-2.3,6.9c-0.3,0.8,0.1,1.6,0.9,1.9
			h0.1c2.8,1.1,4.7,0.7,9,1.6c2.7,0.5,8.3,2.3,12,2.1s3.8-3.9,2.2-4.1C270.6,204.9,266.3,201.5,265,199.8z"/>
		<g class="st15">
			<polygon points="268.3,184.9 264.8,194.1 257.6,191.7 261,182.9 			"/>
		</g>
		<path class="st14" d="M286.5,134.2c-0.3,2.7-0.8,5.4-1.5,8.1c-1.9,7.5-5.2,15.1-8,22.5c-5.4,14.6-10.1,27.4-10.1,27.4l-10-3.5
			c0,0,9-42.4,15.1-46.7h-37.2c-0.7,0-1.4,0-2.1-0.1c6.4-0.8,16.4-4.8,25.7-8.7c8.2-3.5,15.9-7,20-8.3l0,0
			C283.5,126.9,286.9,130,286.5,134.2z"/>
		<path class="st13" d="M286.5,134.2c-0.3,2.7-0.8,5.4-1.5,8.1c-1.9,7.5-5.2,15.1-8,22.5c-5.4,14.6-10.1,27.4-10.1,27.4l-10-3.5
			c0,0,9-42.4,15.1-46.7h-37.2c-0.7,0-1.4,0-2.1-0.1c6.4-0.8,16.4-4.8,25.7-8.7c8.2-3.5,15.9-7,20-8.3l0,0
			C283.5,126.9,286.9,130,286.5,134.2z"/>
		<path class="st16" d="M278.5,124.8c-4.2,1.4-11.8,4.8-20,8.3c-9.3,3.9-19.3,7.9-25.7,8.7c-10.8-1.4-14.9-14.3-3.6-29.1
			c7.3,0,14.7,7,14.7,7S266.1,119.6,278.5,124.8z"/>
		<polygon class="st12" points="305.4,185.3 313.6,185.3 305,164.8 299.4,174.2 		"/>
		<path class="st14" d="M312.9,183.4l-9.6-2.2c-0.3-0.1-0.7,0.1-0.8,0.4l-2.7,7.4c-0.2,0.8,0.2,1.6,1,1.8h0c3.4,0.7,5,0.9,9.2,1.8
			c2.6,0.6,9.2,2.3,12.8,3.1s4.5-2.7,3.1-3.4c-6.4-3-9.9-5.8-11.7-8.2C313.9,183.8,313.4,183.5,312.9,183.4z"/>
		<g class="st15">
			<polygon points="305,164.8 308.6,173.5 301.3,177.6 299.4,174.2 			"/>
		</g>
		<path class="st14" d="M308.8,170.4l-9,5.5c0,0-7.5-15.8-14.7-33.6c0.7-2.6,1.2-5.3,1.5-8.1c0.4-4.3-3-7.3-8.1-9.4l0,0
			c-4.2,1.4-11.8,4.8-20,8.3c-9.3,3.9-19.3,7.9-25.7,8.7c-0.7,0.1-1.5,0.2-2.2,0.2c-12.3,0-16.6-10.8-11.6-29.1
			c7.3,0,19.9-0.8,19.9-0.8s24.2-5.8,41.7-3.8c8.5,1,15.4,7.4,17,15.8C302,146.3,308.8,170.4,308.8,170.4z"/>
		<path class="st14" d="M308.8,170.4l-9,5.5c0,0-7.5-15.8-14.7-33.6c0.7-2.6,1.2-5.3,1.5-8.1c0.4-4.3-3-7.3-8.1-9.4l0,0
			c-4.2,1.4-11.8,4.8-20,8.3c-9.3,3.9-19.3,7.9-25.7,8.7c-0.7,0.1-1.5,0.2-2.2,0.2c-12.3,0-16.6-10.8-11.6-29.1
			c7.3,0,19.9-0.8,19.9-0.8s24.2-5.8,41.7-3.8c8.5,1,15.4,7.4,17,15.8C302,146.3,308.8,170.4,308.8,170.4z"/>
		<path class="st0" d="M244,51.3l-8.2-1.2L225.5,51c-3.2,0.3-5.8,2.7-6.4,5.8c-1.2,7.5-1.8,15.1-2.1,22.7c-0.4,8.6,0.6,21.2,2,32.6
			l34.4-4.2c0.3-30,2.6-39.3,2.9-47.2c0.1-3.2-1.9-6.1-5-7.1L244,51.3z"/>
		<path class="st14" d="M218.9,110.2L218,113c-0.1,0.2,0.1,0.4,0.5,0.4l34.3-2.1c0.3,0,0.5-0.1,0.5-0.3l0.4-2.8
			c0-0.2-0.2-0.4-0.5-0.4l-33.8,2.1C219.3,110,219,110,218.9,110.2z"/>
		<path class="st13" d="M218.9,110.2L218,113c-0.1,0.2,0.1,0.4,0.5,0.4l34.3-2.1c0.3,0,0.5-0.1,0.5-0.3l0.4-2.8
			c0-0.2-0.2-0.4-0.5-0.4l-33.8,2.1C219.3,110,219,110,218.9,110.2z"/>
		<path class="st5" d="M222.4,54.1c6.9-1.2,6.5,14.4,3.4,25.8c-0.9,3.3-4.8,1.9-6.1,1.1C215.3,78.1,213.9,59,222.4,54.1z"/>
		<path class="st12" d="M221.6,77.1c0.3,6.7-1.9,10.3,1.7,12.5s24.8,9.3,25.3,8.4c-1,1.6-2,3-3,4.6c-6.1-0.9-12.2-1.8-18.4-2.6
			c-4.5-0.6-11.7-1.7-15.2-4.6c-3.2-2.6-2.6-13.8-2.1-21.9C212.8,72,221.6,77.1,221.6,77.1z"/>
		<path class="st0" d="M219.7,51.3c7-2.1,9.7,3.6,7.6,13.3c-1.1,5.2-2.6,10.3-4.6,15.3l-14.7-4.6C209.5,65.7,212.5,53.4,219.7,51.3z
			"/>
		<path class="st0" d="M230,51.3c-0.2,1.5,0.2,3,1.1,4.2c0.9,1.2,1.9,2.3,3,3.3c1.4,1.3,3.1,2.6,4.9,2.4c1.7-0.2,2.7-1.1,3.4-3.2
			c1.5,2.4,1.6,3.6,3.2,3.7c1.1-0.1,2.1-0.6,2.7-1.4c1.2-1,2-2.4,2.1-4c0.4-3-2.1-5.8-4.9-6.9c-2.9-1-5.9-1.6-9-1.8
			C233.9,47.3,230.5,48.2,230,51.3z"/>
		<path class="st5" d="M230,51.3c-0.2,1.5,0.2,3,1.1,4.2c0.9,1.2,1.9,2.3,3,3.3c1.4,1.3,3.1,2.6,4.9,2.4c1.7-0.2,2.7-1.1,3.4-3.2
			c1.5,2.4,1.6,3.6,3.2,3.7c1.1-0.1,2.1-0.6,2.7-1.4c1.2-1,2-2.4,2.1-4c0.4-3-2.1-5.8-4.9-6.9c-2.9-1-5.9-1.6-9-1.8
			C233.9,47.3,230.5,48.2,230,51.3z"/>
		<path class="st12" d="M237.2,36.8l3.7,4.3l5.1,5.9c-0.5,0.6-0.8,1.3-1,2.1c-0.7,1.6-0.1,3.6,1.4,4.5c0.8,0.4,1.2,4.4-3.9,4
			c-2.9-0.1-5.7-1.3-7.7-3.5c-0.9-1.2-1.2-1.9-0.2-3.3C237.2,46.8,237.5,41.2,237.2,36.8z"/>
		<path class="st17" d="M244.7,45.5l-3.2-4.2c0,0.1-0.1,0.3-0.1,0.4c-0.2,0.6-0.3,1.2-0.3,1.8c-0.2,2.1,1.8,4.8,3.7,5.9l0.1-0.4
			c0.2-0.7,0.6-1.4,1-2c0,0,0.1-0.1,0.1-0.1L244.7,45.5z"/>
		<path class="st12" d="M237.5,28.8c-0.6,6.9-1.2,11,1.8,14.9c4.5,6,13.5,3.9,16.1-2.8c2.4-6,2.8-16.4-3.5-20
			c-4.7-2.6-10.6-0.9-13.1,3.8C238,26,237.6,27.4,237.5,28.8z"/>
		<path class="st14" d="M236.5,35l3,1.3l0,0c1-0.4,1.2-1.6,1.2-2.7c-0.3-4.2,7.3-9.4,7.3-9.4s-8.1-2.7-10.5-3.1
			c-0.9-0.1-3.9,2.1-4.4,3c-1.3,2.8-0.9,6,1,8.4C234.8,33.3,235.6,34.2,236.5,35z"/>
		<path class="st12" d="M233.9,33.7c0.1,1.6,0.9,3,2,4.1c1.5,1.4,3.3-0.1,3.5-2.1c0.2-1.8-0.7-4.3-2.5-4.9S233.8,31.8,233.9,33.7z"
			/>
		<path class="st14" d="M247.9,33c-0.1,0.6,0.1,1.1,0.5,1.2s0.7-0.3,0.9-0.9s-0.1-1.1-0.5-1.2S248,32.4,247.9,33z"/>
		<path class="st14" d="M254.4,34.4c-0.1,0.6,0.1,1.1,0.5,1.2s0.8-0.3,0.9-0.9s-0.1-1.1-0.5-1.2S254.5,33.8,254.4,34.4z"/>
		<path class="st18" d="M252.2,34.4c0.2,1.6,0.6,3.2,1.2,4.8c-0.8,0.3-1.7,0.2-2.4-0.2L252.2,34.4z"/>
		<path class="st14" d="M249.4,42.1c-1.3-0.4-2.3-1.4-2.9-2.6c0-0.1,0-0.2,0.1-0.2c0.1,0,0.2,0,0.2,0.1c0.6,1.3,1.8,2.3,3.3,2.6
			c0.1,0,0.2,0.1,0.2,0.2c0,0,0,0,0,0c0,0.1-0.1,0.2-0.2,0.1l0,0C249.9,42.3,249.7,42.2,249.4,42.1z"/>
		<path class="st14" d="M247.1,30.7c-0.1,0-0.1,0-0.1-0.1c-0.1-0.1-0.1-0.3,0-0.5c0.8-0.7,1.9-1,3-0.7c0.2,0.1,0.3,0.2,0.2,0.4l0,0
			c-0.1,0.2-0.3,0.3-0.4,0.2c-0.8-0.2-1.7,0-2.3,0.6C247.3,30.7,247.2,30.7,247.1,30.7z"/>
		<path class="st14" d="M255.1,30.7c0-0.1,0-0.1,0-0.2c0-0.2,0.2-0.3,0.4-0.2c0,0,0,0,0,0c1,0.2,1.9,1,2.3,2c0.1,0.2,0,0.4-0.2,0.4
			c-0.2,0.1-0.4-0.1-0.4-0.2c-0.3-0.8-1-1.4-1.8-1.6C255.2,30.9,255.1,30.8,255.1,30.7z"/>
	</g>
	<path class="st0" d="M257.2,109.5l43.9,0.1c1.6,0,2.9-1.2,3.1-2.8l2-22.2c0.1-1.4-0.9-2.7-2.3-2.8c-0.1,0-0.2,0-0.3,0l-43.9-0.1
		c-1.6,0-2.9,1.2-3.1,2.8l-2,22.2c-0.1,1.4,0.9,2.7,2.3,2.8C257,109.5,257.1,109.5,257.2,109.5z"/>
	<path class="st5" d="M257.2,109.5l43.9,0.1c1.6,0,2.9-1.2,3.1-2.8l2-22.2c0.1-1.4-0.9-2.7-2.3-2.8c-0.1,0-0.2,0-0.3,0l-43.9-0.1
		c-1.6,0-2.9,1.2-3.1,2.8l-2,22.2c-0.1,1.4,0.9,2.7,2.3,2.8C257,109.5,257.1,109.5,257.2,109.5z"/>
	<path class="st0" d="M258.5,109.4l43.9,0.1c1.6,0,2.9-1.2,3.1-2.8l2-22.2c0.2-1.4-0.9-2.6-2.2-2.8c-0.1,0-0.2,0-0.3,0L261,81.6
		c-1.6,0-2.9,1.2-3.1,2.8l-2,22.2c-0.2,1.4,0.9,2.6,2.2,2.8C258.3,109.4,258.4,109.4,258.5,109.4z"/>
	<path class="st19" d="M258.5,109.4l43.9,0.1c1.6,0,2.9-1.2,3.1-2.8l2-22.2c0.2-1.4-0.9-2.6-2.2-2.8c-0.1,0-0.2,0-0.3,0L261,81.6
		c-1.6,0-2.9,1.2-3.1,2.8l-2,22.2c-0.2,1.4,0.9,2.6,2.2,2.8C258.3,109.4,258.4,109.4,258.5,109.4z"/>
	<path class="st2" d="M284.8,95.9c-0.2,1.7-1.7,2.9-3.4,2.8c-1.7-0.2-2.9-1.7-2.8-3.4c0.2-1.7,1.7-2.9,3.4-2.8
		C283.7,92.6,284.9,94.2,284.8,95.9C284.8,95.9,284.8,95.9,284.8,95.9z"/>
	<path class="st0" d="M303,109.5c0,1.3-0.8,2.4-1.8,2.4l0,0l-45.3-0.2c-0.5,0-0.9-0.5-0.9-1.2s0.4-1.2,0.9-1.2L303,109.5z"/>
	<path class="st5" d="M303,109.5c0,1.3-0.8,2.4-1.8,2.4l0,0l-45.3-0.2c-0.5,0-0.9-0.5-0.9-1.2s0.4-1.2,0.9-1.2L303,109.5z"/>
	<path class="st0" d="M255.7,111.7h-21.8c-1.2,0-2.1-0.9-2.1-2.1v0l0,0c0-0.2,0.1-0.3,0.3-0.3c0,0,0,0,0,0h23.6
		c0.7,0,1.2,0.5,1.2,1.2c0,0,0,0,0,0l0,0C256.9,111.2,256.3,111.7,255.7,111.7z"/>
	<path class="st12" d="M243.9,94.9l3.6-1.1l-0.3,8.9c0,0-7.9,1.9-8.4-1.8l1-1.9C240.7,97.4,241.9,95.4,243.9,94.9z"/>
	<polygon class="st12" points="252.9,96.3 251.9,101.3 247.2,102.8 247.5,93.9 	"/>
	<polygon class="st0" points="254.4,187.9 269.4,193 272.4,186.8 255.9,181.5 	"/>
	<polygon class="st0" points="297.5,177.1 311.3,169.4 308.8,162.9 293.7,171.7 	"/>
	<path class="st14" d="M257.7,28.8c2.1-0.1,2.9-2.6,2.6-3.6c-0.3-1.4-1.1-2.6-2.3-3.3c0.7-2-0.2-4.4-2.7-6.1c-1.8-1.1-4-1.2-6-0.4
		c0-1.8-3.3-3-5.5-0.7c-1.8-1.1-4.1-0.9-5.7,0.5c-0.5,0.5-0.8,1.2-0.6,1.9c-2.6,0-4.7,2.2-4.7,4.8c0,0.9,0.3,1.8,0.8,2.6
		c0.7,1,2.3,1,3.5,0.7c0.7,1.2,1.8,2,3.1,2.3c3.9,1.3,9.4,0.1,10.3,0c1-0.2,1.9,0,2.8,0.6c-0.4,0.5-0.9,0.8-1.6,0.9
		c-0.6,0.1-1.2,0-1.8-0.1c1.3,0.9,3,1.2,4.5,0.9c0.7-0.3,1.4-0.6,2.1-0.9C257,28.6,257.7,28.8,257.7,28.8z"/>
</g>
</svg>
