<svg xmlns="http://www.w3.org/2000/svg" viewBox="0 0 500 500"><g id="freepik--Character--inject-145"><rect x="83.34" y="350.23" width="57.98" height="95.49" style="fill:#C868C8"></rect><rect x="83.34" y="350.23" width="57.98" height="95.49" style="fill:#fff;opacity:0.6000000000000001"></rect><rect x="61.42" y="350.23" width="21.92" height="95.49" transform="translate(144.76 795.96) rotate(180)" style="fill:#C868C8"></rect><rect x="61.42" y="350.23" width="21.92" height="95.49" transform="translate(144.76 795.96) rotate(180)" style="fill:#fff;opacity:0.4"></rect><rect x="182.43" y="219.6" width="57.98" height="226.12" style="fill:#C868C8"></rect><rect x="182.43" y="219.6" width="57.98" height="226.12" style="fill:#fff;opacity:0.6000000000000001"></rect><rect x="160.51" y="219.6" width="21.92" height="226.12" transform="translate(342.93 665.32) rotate(180)" style="fill:#C868C8"></rect><rect x="160.51" y="219.6" width="21.92" height="226.12" transform="translate(342.93 665.32) rotate(180)" style="fill:#fff;opacity:0.4"></rect><rect x="281.51" y="275.19" width="57.98" height="170.54" style="fill:#C868C8"></rect><rect x="281.51" y="275.19" width="57.98" height="170.54" style="fill:#fff;opacity:0.6000000000000001"></rect><rect x="259.59" y="275.19" width="21.92" height="170.54" transform="translate(541.11 720.91) rotate(180)" style="fill:#C868C8"></rect><rect x="259.59" y="275.19" width="21.92" height="170.54" transform="translate(541.11 720.91) rotate(180)" style="fill:#fff;opacity:0.4"></rect><rect x="380.6" y="254.74" width="57.98" height="190.98" style="fill:#C868C8"></rect><rect x="380.6" y="254.74" width="57.98" height="190.98" style="fill:#fff;opacity:0.6000000000000001"></rect><rect x="358.68" y="254.74" width="21.92" height="190.98" transform="translate(739.28 700.47) rotate(180)" style="fill:#C868C8"></rect><rect x="358.68" y="254.74" width="21.92" height="190.98" transform="translate(739.28 700.47) rotate(180)" style="fill:#fff;opacity:0.4"></rect><path d="M230.81,116.78c.66,11.81,1.13,24,0,35.75-.9,9.17-4.76,16.73-14.3,19-8.85,2.09-21.45,1.93-28.93-3.93-3.49-2.74-4.7-6.6-4.47-10.92.32-6,5.09-38.94,6.51-49.21.86-6.25,1.69-12.59,3.66-18.63,4.11-12.68,10.44-12.92,11.31-13.17.75-.48,5.51-2.29,12.36-.1a13.32,13.32,0,0,1,8.14,7.24C230,93,230.19,105.73,230.81,116.78Z" style="fill:#263238"></path><path d="M202.54,77.75c-7.55,3.52-9.34,11.76-11.17,19.14-2.54,10.28-4.91,20.61-6.78,31q-1.35,7.53-2.32,15.1c-.6,4.84-1.55,10-1.22,14.88.54,8.08,7.93,11.76,15.09,12.91a.27.27,0,0,0,.1-.54c-4.08-.81-8.24-1.94-11.27-5-3.9-3.88-3.44-8.94-3-14,.78-8.58,2-17.11,3.63-25.58s3.46-16.91,5.47-25.3c1.91-8,3.3-18.5,11.5-22.56C202.66,77.84,202.62,77.71,202.54,77.75Z" style="fill:#263238"></path><path d="M228.52,91.42c-1.43-6.18-4.64-12.19-11.14-14,0,0,0,0,0,0C225.78,80.13,227.83,89.31,229,97c1.18,8.07,2,16.18,2.63,24.32.56,7.82,1,15.71.8,23.55-.16,8.47-1.69,16.4-6.69,23.38a.14.14,0,1,0,.21.18c4.92-5.64,6.55-13.42,6.95-20.7a219.59,219.59,0,0,0-.85-28.9C231.29,109.72,230.59,100.31,228.52,91.42Z" style="fill:#263238"></path><path d="M343.58,317c-2.22,1.3-70.59,15.59-73.54,14.49-1.12-.41-3.78-10.25-6.66-22.22-.63-2.59-1.25-5.26-1.87-8-4.06-17.65-7.95-36.48-7.95-36.48l45.71-9.69L306,291.85l1.48,8.06s28.62,6.24,31.73,7.8S345.8,315.69,343.58,317Z" style="fill:#eb9481"></path><path d="M264.49,313.83c2.43,9.82,4.57,17.29,5.55,17.65,2.95,1.11,71.32-13.19,73.54-14.49s-1.33-7.72-4.42-9.29c-1.92-.95-13.55-3.69-22.18-5.66,7.54,1.81,21.6,6.92-7.48,9C285.45,312.81,269.59,313.6,264.49,313.83Z" style="fill:#263238"></path><path d="M282.34,349.82c-2.48.69-72.23-2.92-74.81-4.73-.56-.4.08-9.77.87-18.21.59-6.27,15.83-49.78,15.83-49.78l46.66,2.28-19.16,44.71s26.09,13.32,28.7,15.62S284.81,349.13,282.34,349.82Z" style="fill:#eb9481"></path><path d="M207.53,345.08c2.58,1.83,72.32,5.43,74.81,4.74s.68-7.81-1.91-10.11c-1.22-1.07-7.53-4.52-13.91-7.91,8,4.51,20.71,14.58-58.26-3.37C207.54,336.42,207,344.72,207.53,345.08Z" style="fill:#263238"></path><path d="M173.67,214c13.9,15.49,60.61,3.26,63.4,9.42,2.46,5.44-29.41,92.72-29.41,92.72l51,5.5s44-96.4,28.3-124.25c-8.51-15-46-9-68.57-11.8-6.82-.83-10-14.89-10-14.89H168S157.78,196.3,173.67,214Z" style="fill:#263238"></path><path d="M272.78,188.76l-42.84,32.78c-14.22-.3-45.36,4.63-56.27-7.54-15.89-17.7-5.7-43.3-5.7-43.3h40.39s3.21,14.07,10,14.9C234.25,187.52,257.42,185.15,272.78,188.76Z" style="fill:#37474f"></path><path d="M260.61,310.26c-1.41-.44-14.63-1.91-17.55-2.23-5.84-.63-24.22-2.35-27.55-2.34a.08.08,0,0,0,0,.16c2.9.6,14.63,2,17.54,2.27,5.85.6,25.93,2.55,27.56,2.39A.13.13,0,0,0,260.61,310.26Z" style="fill:#37474f"></path><path d="M243.26,218.31c-3.28-1.63-28.14-.82-46-2.49-5.81-.55-11.64-1.79-16.08-5.6a26.64,26.64,0,0,1-7.94-13.07c-1.71-6.1-1.54-12.46-1.24-18.7.07-1.54.17-3.07.27-4.61,0-.08-.15-.1-.16,0-1.36,11.18-2.4,23.67,4.88,33.36a23.29,23.29,0,0,0,13,8.53c10.76,2.84,51.21,2.13,52.63,3.22,1.71,1.3-24.45,80.92-25,82.44-.1.28.4.47.52.19C220.78,295.46,246.11,219.73,243.26,218.31Z" style="fill:#37474f"></path><path d="M288.79,200.09c-2.41-6.11-7.9-9.91-16-11.36-.13,0-.12.17,0,.21,7,2.06,12.08,4.89,14.84,10.83,1.3,2.78,2,6.68,2.3,11.9,1.67,26.07-21.07,85.24-21.53,86.27a.08.08,0,1,0,.13.08C271.78,292.62,298.71,225.28,288.79,200.09Z" style="fill:#37474f"></path><path d="M307.23,289.51l-38.63,8.22s30.47-91,16.16-102.68c-4-3.25-12.61-4.39-22.89,0-15.35,6.63-33.11,20.14-49.86,25.09-15.68,4.62-34.3.37-40.7-6.68-13.46-14.82-3.34-42.82-3.34-42.82l55.55-2.09s-.83.68,1.82,3c0,0,32.65-7.4,46.83,1.26C297.76,188.53,307.23,289.51,307.23,289.51Z" style="fill:#263238"></path><path d="M192,173.94a.1.1,0,0,0-.2,0,31,31,0,0,1-.48,6.23,10.74,10.74,0,0,1-2.79,5.17c-3.05,3.08-7.42,4.13-11.41,5.39-.21.07-.17.44.07.4,4.43-.68,9.08-1.8,12.32-5.13a10.72,10.72,0,0,0,2.87-5.57A13.34,13.34,0,0,0,192,173.94Z" style="fill:#37474f"></path><path d="M283.8,193.31c-5.93-3.72-15.22-.89-19.66.81-.09,0-.05.19,0,.15,4.09-1.47,14.27-3.69,19.7.16,12.57,8.9-4.25,69.79-15.28,103.3-.17.52.25.38.48-.12,1.82-4,16-46.32,19.74-74.33C289.39,219,292.37,198.69,283.8,193.31Z" style="fill:#37474f"></path><path d="M302.82,279.24c-1.16,0-11.17,2.18-13.38,2.68-4.41,1-14.63,3.64-17,4.55-.06,0,0,.15.05.15,2.29-.22,7.62-1.39,9.82-1.9,4.4-1,19.5-4.65,20.6-5.24C303,279.43,302.94,279.25,302.82,279.24Z" style="fill:#37474f"></path><path d="M281.91,191.73c-4-2.18-8.75-2.54-13.18-2A46.45,46.45,0,0,0,255.25,194c-9,4.14-17.64,9.18-26.69,13.29s-18.59,7.29-28.51,7.59c-8.47.26-19.19-1.23-24.64-8.85-8.4-11.75-3.51-32-3.41-33.31,0-.1-.13-.09-.15,0-6.52,24.89,1.86,34.55,7.52,38.62,4.49,3.22,10.94,4,15.2,4.4,9.86.83,19.75-1.58,28.89-5.22,9.37-3.74,18.15-8.76,27.13-13.35,8.6-4.4,18.19-8.94,28-6.42a23.8,23.8,0,0,1,3.27,1.12C281.93,191.85,282,191.76,281.91,191.73Z" style="fill:#37474f"></path><path d="M201,121.82c5.8,16.37,16.12,35.61,19.91,38.49,4.8,3.64,30.79,6.6,32.23,6.59,3.57-.05,6.24-23.94,2.42-24.05-5.82-.17-21.82.12-23.21-1s-11.5-11.24-22-22.71C203.12,111.2,197.36,111.66,201,121.82Z" style="fill:#eb9481"></path><path d="M251.74,166.91a74.29,74.29,0,0,0,10,3c2.7.45,10.52,1.56,11.32-1.37.54-2-4-3.18-7.15-4.1-1.68-.48-3.84-1.92-3.48-3,.61-1.89,4.93-.56,7.81.69,5.58,2.44,13.18,7.11,16.06,4.09,1.09-1.15-.52-2.81-2.77-4.36,3.56,1.7,7.31,3,8.57,1.78a1.76,1.76,0,0,0,.12-2.42,2.36,2.36,0,0,0,2.52-.7c1-1.26.23-2.87-1.15-4.44a1.35,1.35,0,0,0,.91-.76c1.88-3.76-10.73-12.46-14.81-12.94a101,101,0,0,0-24.21.5C251.36,147,251.73,166.9,251.74,166.91Z" style="fill:#eb9481"></path><path d="M267.65,154.2a20,20,0,0,1,8.13,2.09c3.18,1.61,5.4,3.67,8.15,5.69.07.05,0,.16-.08.11-1.31-1-6.68-4.5-8.05-5.29a19,19,0,0,0-8.15-2.56S267.62,154.19,267.65,154.2Z" style="fill:#263238"></path><path d="M269.25,149a47.18,47.18,0,0,1,9.42,2.09c3.29,1.23,6,3.53,8.71,5.75,1.61,1.33,3.2,2.69,4.74,4.09.07.06,0,.17-.08.11q-4.08-3.43-8.38-6.62a24.89,24.89,0,0,0-8.86-4.25c-1.83-.47-3.69-.79-5.55-1.12C269.21,149.05,269.22,149,269.25,149Z" style="fill:#263238"></path><path d="M272,144.29c3.05.27,5.71.49,8.53,1.78a43.34,43.34,0,0,1,8.84,6c1.47,1.25,2.89,2.54,4.3,3.85.06.06,0,.16-.09.1a100.93,100.93,0,0,0-10.13-7.95,20.21,20.21,0,0,0-5.46-2.72,36.63,36.63,0,0,0-6-1.05S272,144.29,272,144.29Z" style="fill:#263238"></path><path d="M255.44,141.06l-5.58,28.84s-24.56-4.05-29.45-8.24S204.72,134.2,201,122.74s2.26-11.86,8.56-5.09,21.94,23.13,22.75,23.44S255.44,141.06,255.44,141.06Z" style="fill:#C868C8"></path><path d="M246.16,157.8c.68-3.41,1.4-6.81,2-10.23.31-1.95.64-3.9.94-5.85,0-.08-.11-.11-.13,0-.82,3.39-1.64,6.79-2.31,10.21s-1.36,6.82-2,10.23c-.35,2-.65,3.89-.88,5.86a0,0,0,0,0,.07,0C244.77,164.64,245.47,161.23,246.16,157.8Z" style="fill:#263238"></path><path d="M250.42,167l-.55,2.87s-24.57-4.05-29.46-8.23S204.71,134.2,201,122.74c-2.71-8.38-.25-10.85,3.73-8.92C216.23,127,237.91,151.87,250.42,167Z" style="opacity:0.1"></path><path d="M166.7,170.56l58.2,1-4.56-17.43A18.23,18.23,0,0,0,223,138.9c-1.39-5.13-8-12.82-12.08-17.7-9.89-11.89-18.48-6.51-21.22-3.46C179.19,129.42,166.7,170.56,166.7,170.56Z" style="fill:#ebebeb"></path><path d="M194.15,114.4s5.71,15.16,7.94,18.62,8.79,9.66,8.79,9.66.76-8.94,0-14.05-5.1-12.39-5.1-12.39a10.74,10.74,0,0,1,3.07,2.41c4.93,5,13.5,14.9,14.79,21.66A18.06,18.06,0,0,1,221,154l6.56,20.93-9.19,2.85-4.52-5.36-4.67,5.95-46.56-6.49,7.74-14.6s11.08-28.78,15.48-35.08C190.85,115,194.15,114.4,194.15,114.4Z" style="fill:#C868C8"></path><path d="M204.77,153.06a50.63,50.63,0,0,1,7.49-.12c1.24.09,2.46.23,3.69.4.61.09,1.23.15,1.84.22a8.39,8.39,0,0,0,1.94,0c.06,0,.07.07,0,.09a15.51,15.51,0,0,1-1.81.29,13.07,13.07,0,0,1-1.77,0c-1.26-.08-2.52-.21-3.77-.3-2.54-.19-5.07-.37-7.61-.37C204.66,153.27,204.65,153.07,204.77,153.06Z" style="fill:#263238"></path><path d="M199.11,156.33a54.11,54.11,0,0,1,6-1.39c1-.17,2-.29,3.07-.37.49,0,1-.08,1.47-.1s1.09,0,1.63,0c0,0,.07.08,0,.08-.51.05-1,.19-1.51.27l-1.53.23-3,.48c-2,.3-4.06.62-6.09,1C199,156.52,199,156.36,199.11,156.33Z" style="fill:#263238"></path><path d="M193.9,114.75c-.58,4-1.25,8.06-1.93,12.08l-.21-.33c2.37.62,4.73,1.3,7.09,1.95l.4.11-.17.38c-.7,1.55-1.4,3.11-2.13,4.65l-.09-.43c2.5,2.18,5,4.32,7.5,6.54s5,4.41,7.39,6.68c-2.61-2-5.18-4.15-7.74-6.26s-5.08-4.27-7.63-6.4l-.21-.18.12-.25c.69-1.56,1.42-3.1,2.14-4.65l.23.49c-2.35-.69-4.71-1.35-7.06-2.07l-.26-.08,0-.26C192.19,122.73,193,118.73,193.9,114.75Z" style="fill:#263238"></path><path d="M207,117.13c1.32,1.37,2.24,2.35,3.51,3.75s2.58,2.78,3.82,4.21l.26.3-.34.2-2.46,1.53.07-.55c1,1,2,2,3,3.05l.13.14,0,.18c-.52,2.74-1,5.5-1.54,8.23s-1.09,5.48-1.71,8.21c.34-2.78.75-5.54,1.18-8.3s.9-5.51,1.34-8.26l.1.32c-1-1-2-2-3-3.07l-.32-.32.38-.23,2.49-1.49-.08.5c-1.24-1.43-2.43-2.91-3.65-4.36S208.18,118.63,207,117.13Z" style="fill:#263238"></path><path d="M211.75,146.38c.35,1.33.71,2.66,1,4s.63,2.67.92,4v0c.1,3,.12,6,.17,9s0,6,0,9c-.18-3-.3-6-.4-9s-.18-6-.21-9v.05c-.28-1.35-.55-2.7-.79-4.05S212,147.73,211.75,146.38Z" style="fill:#263238"></path><path d="M211,150a1,1,0,0,1-.78,1,1,1,0,0,1-1.16-1,1,1,0,0,1,.38-.79,1,1,0,0,1,.78-.19A1,1,0,0,1,211,150Zm0,0a.63.63,0,0,0-.26-.52.66.66,0,0,0-.52-.08.61.61,0,0,0-.4.6.6.6,0,0,0,.4.59.62.62,0,0,0,.52-.08A.63.63,0,0,0,211,150Z" style="fill:#263238"></path><path d="M212.13,158.61a1,1,0,0,1-.78,1,1,1,0,0,1-.78-.19,1,1,0,0,1,0-1.57,1,1,0,0,1,.78-.19A1,1,0,0,1,212.13,158.61Zm0,0a.62.62,0,0,0-.27-.52.63.63,0,0,0-.51-.08.64.64,0,0,0-.41.6.58.58,0,0,0,.92.51A.61.61,0,0,0,212.13,158.61Z" style="fill:#263238"></path><path d="M212.54,166.54a1,1,0,0,1-.79,1,1,1,0,0,1-.78-.19,1,1,0,0,1,0-1.57,1,1,0,0,1,.78-.19A1,1,0,0,1,212.54,166.54Zm0,0a.67.67,0,0,0-.27-.52.65.65,0,0,0-.52-.08.61.61,0,0,0-.4.6.6.6,0,0,0,.4.59.61.61,0,0,0,.52-.08A.67.67,0,0,0,212.54,166.54Z" style="fill:#263238"></path><path d="M196.58,115.1c0,1.08,3,9,7.76,10,1.54.33,3.73-8,3.73-8l.31-.58,4.22-8.06-8.34-9.17L203,98.12s-1,2.28-2.24,5.13c-.06.13-.12.26-.18.41s-.14.31-.2.46c-.19.42-.39.85-.57,1.29s-.27.65-.41,1-.27.69-.42,1A61.43,61.43,0,0,0,196.58,115.1Z" style="fill:#eb9481"></path><path d="M200.8,103.25a18.22,18.22,0,0,0,7.58,13.34l4.22-8.06-8.34-9.17L203,98.12S202,100.4,200.8,103.25Z" style="fill:#263238"></path><path d="M228.22,97.81c-1.8,15.86-11.5,16.58-14.92,16.19-3.11-.35-13.64-2-13.49-17.92S207.89,75.93,215,76.37,230,81.94,228.22,97.81Z" style="fill:#eb9481"></path><path d="M226.29,94.82c-.37-.1-.69-.24-1-.37a1.85,1.85,0,0,1-1-.58.57.57,0,0,1,.09-.69,1.41,1.41,0,0,1,1.43-.14,2.09,2.09,0,0,1,1.18.9A.6.6,0,0,1,226.29,94.82Z" style="fill:#263238"></path><path d="M215.44,92.83a10,10,0,0,0,1.1-.08,1.8,1.8,0,0,0,1.11-.29.57.57,0,0,0,.09-.69,1.39,1.39,0,0,0-1.33-.51,2,2,0,0,0-1.39.55A.6.6,0,0,0,215.44,92.83Z" style="fill:#263238"></path><path d="M217.42,97.54c0-.05-.09,0-.09.08-.09,1.09-.37,2.31-1.39,2.56,0,0,0,.07,0,.07C217.16,100.21,217.52,98.58,217.42,97.54Z" style="fill:#263238"></path><path d="M216.58,96.3c-1.72-.33-2.24,3.14-.65,3.45S218,96.57,216.58,96.3Z" style="fill:#263238"></path><path d="M215.88,96.38c-.34.15-.69.45-1.06.43s-.69-.43-.91-.82c0,0-.06,0-.07,0a1.28,1.28,0,0,0,.74,1.59c.64.19,1.19-.33,1.46-1C216.09,96.52,216,96.32,215.88,96.38Z" style="fill:#263238"></path><path d="M223.43,98.21s.08.07.07.11c-.2,1.07-.26,2.33.65,2.84,0,0,0,.07,0,.06C223,100.86,223.07,99.19,223.43,98.21Z" style="fill:#263238"></path><path d="M224.57,97.25c1.75.14,1.33,3.62-.29,3.49S223.11,97.12,224.57,97.25Z" style="fill:#263238"></path><path d="M225.27,97.56c.25.22.49.59.81.65s.71-.27,1-.61c0,0,.06,0,.05.05-.06.67-.36,1.33-1,1.38s-.95-.57-1-1.25C225.05,97.65,225.17,97.47,225.27,97.56Z" style="fill:#263238"></path><path d="M216,106.34c.21.3.4.7.78.81a2.87,2.87,0,0,0,1.2-.05,0,0,0,0,1,0,.07,1.49,1.49,0,0,1-1.47.31,1.17,1.17,0,0,1-.65-1.11C215.85,106.3,215.93,106.3,216,106.34Z" style="fill:#263238"></path><path d="M221,103.08a23.91,23.91,0,0,1-.11,2.39c0,.08-.2.08-.46.06,0,0,0,0,0,0a3.63,3.63,0,0,1-3.31-1.84c0-.08.06-.14.13-.08a5.5,5.5,0,0,0,3.16,1.4c.08-.2-.09-2.81,0-2.8a6.65,6.65,0,0,1,1.67.63c.1-3.42-.35-6.82-.19-10.22a.1.1,0,0,1,.2,0,55,55,0,0,1,.67,11C222.78,104,221.29,103.25,221,103.08Z" style="fill:#263238"></path><path d="M220.38,105.15a4.43,4.43,0,0,1-1.86,1.26,1.93,1.93,0,0,1-1.21,0c-.86-.28-.83-1.09-.62-1.76a4.42,4.42,0,0,1,.46-1A5.69,5.69,0,0,0,220.38,105.15Z" style="fill:#263238"></path><path d="M218.52,106.41a1.93,1.93,0,0,1-1.21,0c-.86-.28-.83-1.09-.62-1.76A2,2,0,0,1,218.52,106.41Z" style="fill:#ff9bbc"></path><path d="M199.85,98a6.64,6.64,0,0,0,4.58-4.67A17.36,17.36,0,0,0,212.34,89c-.17.31-1.34,2.53-2,3.65,10.37-.13,14.82-7.27,14.82-7.27a17.47,17.47,0,0,1,3.26,7.13s1.15-6.15-1.3-10.82A10.06,10.06,0,0,0,218.69,76a14.39,14.39,0,0,0-14.6,1.84C196.33,83.78,199.85,98,199.85,98Z" style="fill:#263238"></path><path d="M218.28,92.29a19,19,0,0,1-5.48,1s0,0,0,0A15.85,15.85,0,0,0,221,90.08a15.05,15.05,0,0,0,2.7-2.65,10.51,10.51,0,0,0,2-3.59.08.08,0,0,1,.15,0,12.21,12.21,0,0,1-1.49,3.82,11,11,0,0,1-2.81,2.93,12.76,12.76,0,0,1-3.22,1.66Z" style="fill:#263238"></path><path d="M198.86,101.47a2.88,2.88,0,0,0,.69.33,2.56,2.56,0,0,0,.73.17,2.12,2.12,0,0,0,1-.11,2.54,2.54,0,0,0,.68-.34,2.94,2.94,0,0,0,.78-.76l0-4.35s-2.43-5.58-4.89-4.8S196.45,100,198.86,101.47Z" style="fill:#eb9481"></path><path d="M198.16,93.77s-.06,0,0,.07c1.67,1.11,2.29,3,2.61,4.88a1.49,1.49,0,0,0-2.1-.84.06.06,0,0,0,0,.11,1.65,1.65,0,0,1,1.67.93,7.8,7.8,0,0,1,.57,1.62c.05.18.36.15.34-.05v0C201.76,98.13,200.61,94.51,198.16,93.77Z" style="fill:#263238"></path><path d="M185.06,119.86c-9.46,8.29-33.68,40.89-27.73,47.87s43.33,2.14,54.08-1.72c3.2-1.15-6.49-21.34-10-22.14-2.95-.67-18.92,4.78-19.28,3.86s2.77-8.13,7.77-21C195.64,111.83,189.23,116.2,185.06,119.86Z" style="fill:#eb9481"></path><path d="M217.16,139.24c7.52-.28,9.5.8,15.72-2.82,4.08-2.37,7.35-.78,4.74,3.37-4.27,6.81-13.9,9.22-17.48,9.09Z" style="fill:#eb9481"></path><path d="M196.74,144.41a76.7,76.7,0,0,1,16.78-4.89c5.53-.77,17.73-1.08,28.06,12,2.45,3.09,3.75,9.24-2.09,5.64-4.15-2.56-6-5.43-8.69-6.48,0,0,.73,8-2.47,10.35a73.16,73.16,0,0,1-8.78,5.51,15.82,15.82,0,0,1-1.18-1.55s-3.19,1.89-8.73.8Z" style="fill:#eb9481"></path><path d="M218.91,139.63c2.44,1.6,7.57,5.09,10.76,9.39,3.56,4.79,9.11,15,5.55,17.55-2.61,1.89-5.07-1.81-5.07-1.81s1.41,4.69-1.32,5.89c-2.49,1.09-4.23-1.88-4.23-1.88s.37,3-2.23,3.58c-3.13.7-3.38-5.68-7.17-7.7C214.35,164.2,218.91,139.63,218.91,139.63Z" style="fill:#eb9481"></path><path d="M224,151.93a23.78,23.78,0,0,1,6.21,12.72c0,.12-.07.2-.11.09A58.47,58.47,0,0,0,224,152S224,151.91,224,151.93Z" style="fill:#263238"></path><path d="M219.27,155.66c1.6,1.81,5,7.61,5.44,13.07,0,.12-.08.19-.12.08a62.73,62.73,0,0,0-5.37-13.12S219.25,155.64,219.27,155.66Z" style="fill:#263238"></path><path d="M230.81,150.59a20.12,20.12,0,0,1,5.7,3.92,30.64,30.64,0,0,0,2.92,2.29c.93.63,2.3,1.58,3.43.85a2,2,0,0,0,.65-1.93,10,10,0,0,0-1.06-2.88s0-.07.06,0a13.62,13.62,0,0,1,1.21,2.6,3.19,3.19,0,0,1,0,1.91c-.49,1.29-2.08,1.31-3.16.83a10.22,10.22,0,0,1-1.81-1.11c-.55-.39-1.08-.81-1.61-1.25-1.07-.89-2.09-1.84-3.15-2.75a32.83,32.83,0,0,0-3.25-2.36C230.72,150.64,230.76,150.58,230.81,150.59Z" style="fill:#263238"></path><path d="M235,159.61a77.36,77.36,0,0,0-4.26-9,0,0,0,0,1,.05-.05,39.44,39.44,0,0,1,4.81,8.62,13.21,13.21,0,0,1,1,5.25c-.25,2.52-2,2.83-2.61,2.89a3.24,3.24,0,0,1-2.11-.56,6.76,6.76,0,0,1-1.77-2,0,0,0,0,1,.06,0,4.7,4.7,0,0,0,3.52,2.17,2.33,2.33,0,0,0,1.65-.69,3,3,0,0,0,.6-2A13.77,13.77,0,0,0,235,159.61Z" style="fill:#263238"></path><path d="M196.74,144.41,206,170.18s-46.76,5.68-49.91-2.67,17.74-37.74,26.65-46c10.33-9.59,11.16-5.89,8.18,3.23-3.12,9.54-8.66,23.24-8.66,23.24Z" style="fill:#C868C8"></path><path d="M167.66,153.12a51.41,51.41,0,0,1,14.44-5.38c1.43-.32,2.87-.57,4.31-.82,0,0,.05.06,0,.06a68.49,68.49,0,0,0-7.45,2.07c-2.43.81-4.84,1.65-7.24,2.55-1.36.5-2.69,1.07-4,1.62A.05.05,0,0,1,167.66,153.12Z" style="fill:#263238"></path><path d="M196.62,144.33c-.23,0-13.16,2.91-13.58,3.06.07-.19,3-6.61,3.41-7.55a2.39,2.39,0,0,1,.13-.28c.27-.42.54-.83.8-1.25s.65-1.08,1-1.63a0,0,0,1,0,0,0l-1.05,1.58c-.16.24-.31.49-.46.74.29-.66.57-1.33.85-2,.45-1.07.86-2.16,1.27-3.24,0,0,0-.05-.05,0-.86,1.87-1.78,3.72-2.64,5.59s-4.15,8.75-4.13,8.74,14.26-3.47,14.54-3.56A.09.09,0,1,0,196.62,144.33Z" style="fill:#263238"></path><path d="M195.86,160.46c-1-2.88-2-5.76-3.12-8.6-.64-1.61-1.26-3.23-1.92-4.83,0-.06-.13,0-.11,0,.9,2.93,1.81,5.86,2.85,8.74s2,5.75,3.1,8.61c.61,1.62,1.26,3.22,2,4.81,0,0,.06,0,.06,0C197.88,166.24,196.88,163.35,195.86,160.46Z" style="fill:#263238"></path><path d="M206.51,170.62c-.38-.8-.85-2-1.26-2.73-.11-.21-.27-.19-.18,0,.28.72.49,1.52.76,2.26l-2,.19-2.27.24c-1.49.15-3,.29-4.46.41q-4.51.38-9,.56a174.6,174.6,0,0,1-18.16-.11c-1.69-.11-3.38-.25-5.06-.44s-3.55-.42-4.95-.74c-.05,0-.06.06,0,.08a27.52,27.52,0,0,0,4.27,1c1.52.23,3,.42,4.57.55,3.05.27,6.1.38,9.16.41q9.09.08,18.16-.62c1.69-.12,3.38-.27,5.07-.44.86-.08,1.71-.17,2.56-.27A15.83,15.83,0,0,0,206.51,170.62Z" style="fill:#263238"></path><rect x="210.78" y="173.35" width="58.88" height="2.64" style="fill:#c7c7c7"></rect><polygon points="269.66 173.35 269.66 175.99 229.63 175.99 231.65 173.35 269.66 173.35" style="fill:#a6a6a6"></polygon><polygon points="237.73 175.99 289.26 175.99 296.72 139.63 245.19 139.63 237.73 175.99" style="fill:#a6a6a6"></polygon><polygon points="240.14 175.99 291.67 175.99 299.13 139.63 247.59 139.63 240.14 175.99" style="fill:#c7c7c7"></polygon><path d="M274.28,156.46a3.63,3.63,0,0,1-2.57,3.66c-1.47.31-2.71-.83-2.76-2.55a3.62,3.62,0,0,1,2.57-3.67C273,153.59,274.22,154.74,274.28,156.46Z" style="fill:#fff"></path></g><g id="freepik--Coins--inject-145"><rect x="338.62" y="431.57" width="64.05" height="14.15" style="fill:#C868C8"></rect><g style="opacity:0.1"><path d="M341.26,432.87a32.29,32.29,0,0,1,0,11.32,27.77,27.77,0,0,1-.5-5.66A28.5,28.5,0,0,1,341.26,432.87Z"></path><path d="M346,432.87a32.29,32.29,0,0,1,0,11.32,32.29,32.29,0,0,1,0-11.32Z"></path><path d="M348.36,432.87a32.29,32.29,0,0,1,0,11.32,27.77,27.77,0,0,1-.5-5.66A28.5,28.5,0,0,1,348.36,432.87Z"></path><path d="M361.15,432.87a29.27,29.27,0,0,1,.5,5.66,28.5,28.5,0,0,1-.5,5.66,27.77,27.77,0,0,1-.5-5.66A28.5,28.5,0,0,1,361.15,432.87Z"></path><path d="M364.61,432.87a29.27,29.27,0,0,1,.5,5.66,28.5,28.5,0,0,1-.5,5.66,27.77,27.77,0,0,1-.5-5.66A29.27,29.27,0,0,1,364.61,432.87Z"></path><path d="M378.92,432.87a32.29,32.29,0,0,1,0,11.32,27.77,27.77,0,0,1-.5-5.66A28.5,28.5,0,0,1,378.92,432.87Z"></path><path d="M382.22,432.87a32.29,32.29,0,0,1,0,11.32,32.29,32.29,0,0,1,0-11.32Z"></path><path d="M388.29,432.87a32.29,32.29,0,0,1,0,11.32,32.93,32.93,0,0,1,0-11.32Z"></path><path d="M376.15,432.87a32.29,32.29,0,0,1,0,11.32,32.29,32.29,0,0,1,0-11.32Z"></path><path d="M352.59,432.87a32.29,32.29,0,0,1,0,11.32,32.29,32.29,0,0,1,0-11.32Z"></path><path d="M369.16,432.87a32.29,32.29,0,0,1,0,11.32,32.29,32.29,0,0,1,0-11.32Z"></path><path d="M371.55,432.87a32.29,32.29,0,0,1,0,11.32,32.29,32.29,0,0,1,0-11.32Z"></path><path d="M396.21,432.87a32.29,32.29,0,0,1,0,11.32,27.77,27.77,0,0,1-.5-5.66A28.5,28.5,0,0,1,396.21,432.87Z"></path><path d="M399.79,432.87a32.93,32.93,0,0,1,0,11.32,32.29,32.29,0,0,1,0-11.32Z"></path><path d="M391.11,432.87a32.29,32.29,0,0,1,0,11.32,32.29,32.29,0,0,1,0-11.32Z"></path><path d="M358.38,432.87a32.29,32.29,0,0,1,0,11.32,32.93,32.93,0,0,1,0-11.32Z"></path></g><polygon points="402.66 431.57 402.66 434.58 338.62 436.6 338.62 431.57 402.66 431.57" style="opacity:0.1"></polygon><rect x="333.27" y="417.42" width="64.05" height="14.15" style="fill:#C868C8"></rect><g style="opacity:0.1"><path d="M394.44,430a29.27,29.27,0,0,1-.5-5.66,28.44,28.44,0,0,1,.5-5.66,27.71,27.71,0,0,1,.5,5.66A29.27,29.27,0,0,1,394.44,430Z"></path><path d="M389.67,430a29.27,29.27,0,0,1-.5-5.66,28.44,28.44,0,0,1,.5-5.66,27.71,27.71,0,0,1,.5,5.66A28.5,28.5,0,0,1,389.67,430Z"></path><path d="M387.34,430a29.27,29.27,0,0,1-.5-5.66,28.44,28.44,0,0,1,.5-5.66,27.71,27.71,0,0,1,.5,5.66A29.27,29.27,0,0,1,387.34,430Z"></path><path d="M374.55,430a29.27,29.27,0,0,1-.5-5.66,27.71,27.71,0,0,1,.5-5.66,28.44,28.44,0,0,1,.5,5.66A29.27,29.27,0,0,1,374.55,430Z"></path><path d="M371.09,430a28.5,28.5,0,0,1-.5-5.66,27.71,27.71,0,0,1,.5-5.66,28.44,28.44,0,0,1,.5,5.66A29.27,29.27,0,0,1,371.09,430Z"></path><path d="M356.78,430a29.27,29.27,0,0,1-.5-5.66,27.71,27.71,0,0,1,.5-5.66,27.71,27.71,0,0,1,.5,5.66A29.27,29.27,0,0,1,356.78,430Z"></path><path d="M353.47,430a32.29,32.29,0,0,1,0-11.32,32.29,32.29,0,0,1,0,11.32Z"></path><path d="M347.4,430a32.29,32.29,0,0,1,0-11.32,32.29,32.29,0,0,1,0,11.32Z"></path><path d="M359.54,430a32.29,32.29,0,0,1,0-11.32,32.29,32.29,0,0,1,0,11.32Z"></path><path d="M383.11,430a32.29,32.29,0,0,1,0-11.32,32.29,32.29,0,0,1,0,11.32Z"></path><path d="M366.54,430a32.29,32.29,0,0,1,0-11.32,32.29,32.29,0,0,1,0,11.32Z"></path><path d="M364.15,430a29.27,29.27,0,0,1-.5-5.66,28.44,28.44,0,0,1,.5-5.66,27.71,27.71,0,0,1,.5,5.66A28.5,28.5,0,0,1,364.15,430Z"></path><path d="M339.49,430a29.27,29.27,0,0,1-.5-5.66,28.44,28.44,0,0,1,.5-5.66,27.71,27.71,0,0,1,.5,5.66A29.27,29.27,0,0,1,339.49,430Z"></path><path d="M335.91,430a32.29,32.29,0,0,1,0-11.32,32.29,32.29,0,0,1,0,11.32Z"></path><path d="M344.59,430a32.29,32.29,0,0,1,0-11.32,32.93,32.93,0,0,1,0,11.32Z"></path><path d="M377.31,430a32.29,32.29,0,0,1,0-11.32,32.29,32.29,0,0,1,0,11.32Z"></path></g><polygon points="397.32 417.42 397.32 420.43 333.27 422.45 333.27 417.42 397.32 417.42" style="opacity:0.1"></polygon><rect x="338.21" y="403.38" width="64.05" height="14.15" style="fill:#C868C8"></rect><g style="opacity:0.1"><path d="M340.85,404.68a32.29,32.29,0,0,1,0,11.32,27.71,27.71,0,0,1-.5-5.66A28.57,28.57,0,0,1,340.85,404.68Z"></path><path d="M345.62,404.68a32.29,32.29,0,0,1,0,11.32,32.29,32.29,0,0,1,0-11.32Z"></path><path d="M348,404.68A32.29,32.29,0,0,1,348,416a27.71,27.71,0,0,1-.5-5.66A28.57,28.57,0,0,1,348,404.68Z"></path><path d="M360.74,404.68a29.34,29.34,0,0,1,.5,5.66,28.44,28.44,0,0,1-.5,5.66,27.71,27.71,0,0,1-.5-5.66A28.57,28.57,0,0,1,360.74,404.68Z"></path><path d="M364.2,404.68a29.34,29.34,0,0,1,.5,5.66,28.44,28.44,0,0,1-.5,5.66,27.71,27.71,0,0,1-.5-5.66A29.34,29.34,0,0,1,364.2,404.68Z"></path><path d="M378.51,404.68a32.29,32.29,0,0,1,0,11.32,27.71,27.71,0,0,1-.5-5.66A28.57,28.57,0,0,1,378.51,404.68Z"></path><path d="M381.81,404.68a32.29,32.29,0,0,1,0,11.32,32.29,32.29,0,0,1,0-11.32Z"></path><path d="M387.88,404.68a32.29,32.29,0,0,1,0,11.32,32.29,32.29,0,0,1,0-11.32Z"></path><path d="M375.74,404.68a32.29,32.29,0,0,1,0,11.32,32.29,32.29,0,0,1,0-11.32Z"></path><path d="M352.18,404.68a32.29,32.29,0,0,1,0,11.32,32.29,32.29,0,0,1,0-11.32Z"></path><path d="M368.75,404.68a32.29,32.29,0,0,1,0,11.32,32.29,32.29,0,0,1,0-11.32Z"></path><path d="M371.14,404.68a32.29,32.29,0,0,1,0,11.32,32.29,32.29,0,0,1,0-11.32Z"></path><path d="M395.8,404.68a32.29,32.29,0,0,1,0,11.32,32.29,32.29,0,0,1,0-11.32Z"></path><path d="M399.37,404.68a32.29,32.29,0,0,1,0,11.32,32.93,32.93,0,0,1,0-11.32Z"></path><path d="M390.7,404.68a32.29,32.29,0,0,1,0,11.32,32.29,32.29,0,0,1,0-11.32Z"></path><path d="M358,404.68A32.29,32.29,0,0,1,358,416a32.29,32.29,0,0,1,0-11.32Z"></path></g><polygon points="402.25 403.39 402.25 406.39 338.21 408.41 338.21 403.39 402.25 403.39" style="opacity:0.1"></polygon><rect x="142.97" y="431.57" width="64.05" height="14.15" style="fill:#C868C8"></rect><g style="opacity:0.1"><path d="M145.61,432.87a28.5,28.5,0,0,1,.5,5.66,27.77,27.77,0,0,1-.5,5.66,28.5,28.5,0,0,1-.5-5.66A29.27,29.27,0,0,1,145.61,432.87Z"></path><path d="M150.38,432.87a28.5,28.5,0,0,1,.5,5.66,27.77,27.77,0,0,1-.5,5.66,28.5,28.5,0,0,1-.5-5.66A29.27,29.27,0,0,1,150.38,432.87Z"></path><path d="M152.71,432.87a28.5,28.5,0,0,1,.5,5.66,27.77,27.77,0,0,1-.5,5.66,32.29,32.29,0,0,1,0-11.32Z"></path><path d="M165.5,432.87a32.29,32.29,0,0,1,0,11.32,32.29,32.29,0,0,1,0-11.32Z"></path><path d="M169,432.87a32.29,32.29,0,0,1,0,11.32,32.29,32.29,0,0,1,0-11.32Z"></path><path d="M183.27,432.87a28.5,28.5,0,0,1,.5,5.66,27.77,27.77,0,0,1-.5,5.66,32.29,32.29,0,0,1,0-11.32Z"></path><path d="M186.58,432.87a32.29,32.29,0,0,1,0,11.32,27.77,27.77,0,0,1-.5-5.66A28.5,28.5,0,0,1,186.58,432.87Z"></path><path d="M192.65,432.87a32.29,32.29,0,0,1,0,11.32,27.77,27.77,0,0,1-.5-5.66A28.5,28.5,0,0,1,192.65,432.87Z"></path><path d="M180.51,432.87a32.29,32.29,0,0,1,0,11.32,32.29,32.29,0,0,1,0-11.32Z"></path><path d="M156.94,432.87a29.27,29.27,0,0,1,.5,5.66,28.5,28.5,0,0,1-.5,5.66,27.77,27.77,0,0,1-.5-5.66A28.5,28.5,0,0,1,156.94,432.87Z"></path><path d="M173.52,432.87a32.29,32.29,0,0,1,0,11.32,32.29,32.29,0,0,1,0-11.32Z"></path><path d="M175.9,432.87a29.27,29.27,0,0,1,.5,5.66,27.77,27.77,0,0,1-.5,5.66,28.5,28.5,0,0,1-.5-5.66A29.27,29.27,0,0,1,175.9,432.87Z"></path><path d="M200.56,432.87a28.5,28.5,0,0,1,.5,5.66,27.77,27.77,0,0,1-.5,5.66,28.5,28.5,0,0,1-.5-5.66A29.27,29.27,0,0,1,200.56,432.87Z"></path><path d="M204.14,432.87a32.29,32.29,0,0,1,0,11.32,27.77,27.77,0,0,1-.5-5.66A28.5,28.5,0,0,1,204.14,432.87Z"></path><path d="M195.47,432.87a32.29,32.29,0,0,1,0,11.32,32.29,32.29,0,0,1,0-11.32Z"></path><path d="M162.74,432.87a32.29,32.29,0,0,1,0,11.32,27.77,27.77,0,0,1-.5-5.66A28.5,28.5,0,0,1,162.74,432.87Z"></path></g><polygon points="207.01 431.57 207.01 434.58 142.97 436.6 142.97 431.57 207.01 431.57" style="opacity:0.1"></polygon><rect x="138.59" y="417.42" width="64.05" height="14.15" style="fill:#C868C8"></rect><g style="opacity:0.1"><path d="M141.23,418.72a28.44,28.44,0,0,1,.5,5.66,27.77,27.77,0,0,1-.5,5.66,28.5,28.5,0,0,1-.5-5.66A29.2,29.2,0,0,1,141.23,418.72Z"></path><path d="M146,418.72a28.44,28.44,0,0,1,.5,5.66A27.77,27.77,0,0,1,146,430a28.5,28.5,0,0,1-.5-5.66A29.2,29.2,0,0,1,146,418.72Z"></path><path d="M148.33,418.72a28.44,28.44,0,0,1,.5,5.66,27.77,27.77,0,0,1-.5,5.66,28.5,28.5,0,0,1-.5-5.66A29.2,29.2,0,0,1,148.33,418.72Z"></path><path d="M161.12,418.72a32.29,32.29,0,0,1,0,11.32,32.29,32.29,0,0,1,0-11.32Z"></path><path d="M164.58,418.72a32.29,32.29,0,0,1,0,11.32,32.29,32.29,0,0,1,0-11.32Z"></path><path d="M178.89,418.72a28.44,28.44,0,0,1,.5,5.66,27.77,27.77,0,0,1-.5,5.66,28.5,28.5,0,0,1-.5-5.66A29.2,29.2,0,0,1,178.89,418.72Z"></path><path d="M182.2,418.72a32.29,32.29,0,0,1,0,11.32,32.29,32.29,0,0,1,0-11.32Z"></path><path d="M188.27,418.72a32.29,32.29,0,0,1,0,11.32,27.77,27.77,0,0,1-.5-5.66A28.44,28.44,0,0,1,188.27,418.72Z"></path><path d="M176.13,418.72a32.29,32.29,0,0,1,0,11.32,32.29,32.29,0,0,1,0-11.32Z"></path><path d="M152.56,418.72a29.2,29.2,0,0,1,.5,5.66,28.5,28.5,0,0,1-.5,5.66,27.77,27.77,0,0,1-.5-5.66A28.44,28.44,0,0,1,152.56,418.72Z"></path><path d="M169.14,418.72a32.29,32.29,0,0,1,0,11.32,32.29,32.29,0,0,1,0-11.32Z"></path><path d="M171.52,418.72a29.2,29.2,0,0,1,.5,5.66,27.77,27.77,0,0,1-.5,5.66,28.5,28.5,0,0,1-.5-5.66A29.2,29.2,0,0,1,171.52,418.72Z"></path><path d="M196.18,418.72a28.44,28.44,0,0,1,.5,5.66,27.77,27.77,0,0,1-.5,5.66,28.5,28.5,0,0,1-.5-5.66A29.2,29.2,0,0,1,196.18,418.72Z"></path><path d="M199.76,418.72a32.29,32.29,0,0,1,0,11.32,27.77,27.77,0,0,1-.5-5.66A28.44,28.44,0,0,1,199.76,418.72Z"></path><path d="M191.09,418.72a32.29,32.29,0,0,1,0,11.32,32.29,32.29,0,0,1,0-11.32Z"></path><path d="M158.36,418.72a32.29,32.29,0,0,1,0,11.32,27.77,27.77,0,0,1-.5-5.66A28.44,28.44,0,0,1,158.36,418.72Z"></path></g><polygon points="202.63 417.42 202.63 420.43 138.59 422.45 138.59 417.42 202.63 417.42" style="opacity:0.1"></polygon><rect x="148.49" y="389.23" width="64.05" height="14.15" style="fill:#C868C8"></rect><g style="opacity:0.1"><path d="M151.13,390.53a32.29,32.29,0,0,1,0,11.32,32.29,32.29,0,0,1,0-11.32Z"></path><path d="M155.89,390.53a32.29,32.29,0,0,1,0,11.32,32.93,32.93,0,0,1,0-11.32Z"></path><path d="M158.23,390.53a32.29,32.29,0,0,1,0,11.32,32.29,32.29,0,0,1,0-11.32Z"></path><path d="M171,390.53a32.29,32.29,0,0,1,0,11.32,32.29,32.29,0,0,1,0-11.32Z"></path><path d="M174.48,390.53a32.29,32.29,0,0,1,0,11.32,32.29,32.29,0,0,1,0-11.32Z"></path><path d="M188.79,390.53a32.29,32.29,0,0,1,0,11.32,32.29,32.29,0,0,1,0-11.32Z"></path><path d="M192.09,390.53a28.5,28.5,0,0,1,.5,5.66,27.71,27.71,0,0,1-.5,5.66,32.29,32.29,0,0,1,0-11.32Z"></path><path d="M198.16,390.53a32.29,32.29,0,0,1,0,11.32,32.29,32.29,0,0,1,0-11.32Z"></path><path d="M186,390.53a28.5,28.5,0,0,1,.5,5.66,27.71,27.71,0,0,1-.5,5.66,32.29,32.29,0,0,1,0-11.32Z"></path><path d="M162.45,390.53a32.29,32.29,0,0,1,0,11.32,32.29,32.29,0,0,1,0-11.32Z"></path><path d="M179,390.53a29.27,29.27,0,0,1,.5,5.66,28.44,28.44,0,0,1-.5,5.66,27.71,27.71,0,0,1-.5-5.66A29.27,29.27,0,0,1,179,390.53Z"></path><path d="M181.41,390.53a32.29,32.29,0,0,1,0,11.32,32.29,32.29,0,0,1,0-11.32Z"></path><path d="M206.08,390.53a32.93,32.93,0,0,1,0,11.32,32.29,32.29,0,0,1,0-11.32Z"></path><path d="M209.65,390.53a32.29,32.29,0,0,1,0,11.32,32.29,32.29,0,0,1,0-11.32Z"></path><path d="M201,390.53a29.27,29.27,0,0,1,.5,5.66,27.71,27.71,0,0,1-.5,5.66,28.44,28.44,0,0,1-.5-5.66A29.27,29.27,0,0,1,201,390.53Z"></path><path d="M168.25,390.53a32.29,32.29,0,0,1,0,11.32,32.29,32.29,0,0,1,0-11.32Z"></path></g><polygon points="212.53 389.23 212.53 392.24 148.49 394.26 148.49 389.23 212.53 389.23" style="opacity:0.1"></polygon><rect x="146.87" y="375.08" width="64.05" height="14.15" style="fill:#C868C8"></rect><g style="opacity:0.1"><path d="M208,387.7a32.29,32.29,0,0,1,0-11.32,32.29,32.29,0,0,1,0,11.32Z"></path><path d="M203.27,387.7a32.29,32.29,0,0,1,0-11.32,32.29,32.29,0,0,1,0,11.32Z"></path><path d="M200.94,387.7a32.29,32.29,0,0,1,0-11.32,32.29,32.29,0,0,1,0,11.32Z"></path><path d="M188.14,387.7a32.29,32.29,0,0,1,0-11.32,32.29,32.29,0,0,1,0,11.32Z"></path><path d="M184.68,387.7a32.29,32.29,0,0,1,0-11.32,32.29,32.29,0,0,1,0,11.32Z"></path><path d="M170.38,387.7a32.29,32.29,0,0,1,0-11.32,32.29,32.29,0,0,1,0,11.32Z"></path><path d="M167.07,387.7a28.5,28.5,0,0,1-.5-5.66,27.71,27.71,0,0,1,.5-5.66,28.44,28.44,0,0,1,.5,5.66A29.27,29.27,0,0,1,167.07,387.7Z"></path><path d="M161,387.7a28.5,28.5,0,0,1-.5-5.66,27.71,27.71,0,0,1,.5-5.66,28.44,28.44,0,0,1,.5,5.66A29.27,29.27,0,0,1,161,387.7Z"></path><path d="M173.14,387.7a29.27,29.27,0,0,1-.5-5.66,27.71,27.71,0,0,1,.5-5.66,28.44,28.44,0,0,1,.5,5.66A29.27,29.27,0,0,1,173.14,387.7Z"></path><path d="M196.71,387.7a28.5,28.5,0,0,1-.5-5.66,27.71,27.71,0,0,1,.5-5.66,32.29,32.29,0,0,1,0,11.32Z"></path><path d="M180.13,387.7a29.27,29.27,0,0,1-.5-5.66,28.44,28.44,0,0,1,.5-5.66,27.71,27.71,0,0,1,.5,5.66A28.5,28.5,0,0,1,180.13,387.7Z"></path><path d="M177.75,387.7a32.29,32.29,0,0,1,0-11.32,32.29,32.29,0,0,1,0,11.32Z"></path><path d="M153.09,387.7a32.29,32.29,0,0,1,0-11.32,32.29,32.29,0,0,1,0,11.32Z"></path><path d="M149.51,387.7A28.5,28.5,0,0,1,149,382a27.71,27.71,0,0,1,.5-5.66A28.44,28.44,0,0,1,150,382,29.27,29.27,0,0,1,149.51,387.7Z"></path><path d="M158.18,387.7a29.27,29.27,0,0,1-.5-5.66,28.44,28.44,0,0,1,.5-5.66,27.71,27.71,0,0,1,.5,5.66A29.27,29.27,0,0,1,158.18,387.7Z"></path><path d="M190.91,387.7a28.5,28.5,0,0,1-.5-5.66,27.71,27.71,0,0,1,.5-5.66,28.44,28.44,0,0,1,.5,5.66A29.27,29.27,0,0,1,190.91,387.7Z"></path></g><polygon points="210.91 375.08 210.91 378.09 146.87 380.11 146.87 375.08 210.91 375.08" style="opacity:0.1"></polygon><rect x="142.97" y="360.93" width="64.05" height="14.15" style="fill:#C868C8"></rect><g style="opacity:0.1"><path d="M145.61,362.23a32.29,32.29,0,0,1,0,11.32,32.29,32.29,0,0,1,0-11.32Z"></path><path d="M150.38,362.23a28.44,28.44,0,0,1,.5,5.66,27.84,27.84,0,0,1-.5,5.66,32.29,32.29,0,0,1,0-11.32Z"></path><path d="M152.71,362.23a32.29,32.29,0,0,1,0,11.32,32.29,32.29,0,0,1,0-11.32Z"></path><path d="M165.5,362.23a32.29,32.29,0,0,1,0,11.32,32.29,32.29,0,0,1,0-11.32Z"></path><path d="M169,362.23a32.29,32.29,0,0,1,0,11.32,32.29,32.29,0,0,1,0-11.32Z"></path><path d="M183.27,362.23a32.29,32.29,0,0,1,0,11.32,32.29,32.29,0,0,1,0-11.32Z"></path><path d="M186.58,362.23a29.2,29.2,0,0,1,.5,5.66,28.57,28.57,0,0,1-.5,5.66,27.84,27.84,0,0,1-.5-5.66A28.44,28.44,0,0,1,186.58,362.23Z"></path><path d="M192.65,362.23a29.2,29.2,0,0,1,.5,5.66,28.57,28.57,0,0,1-.5,5.66,27.84,27.84,0,0,1-.5-5.66A29.2,29.2,0,0,1,192.65,362.23Z"></path><path d="M180.51,362.23a29.2,29.2,0,0,1,.5,5.66,28.57,28.57,0,0,1-.5,5.66,27.84,27.84,0,0,1-.5-5.66A28.44,28.44,0,0,1,180.51,362.23Z"></path><path d="M156.94,362.23a29.2,29.2,0,0,1,.5,5.66,27.84,27.84,0,0,1-.5,5.66,28.57,28.57,0,0,1-.5-5.66A29.2,29.2,0,0,1,156.94,362.23Z"></path><path d="M173.52,362.23a32.29,32.29,0,0,1,0,11.32,32.29,32.29,0,0,1,0-11.32Z"></path><path d="M175.9,362.23a28.44,28.44,0,0,1,.5,5.66,27.84,27.84,0,0,1-.5,5.66,32.29,32.29,0,0,1,0-11.32Z"></path><path d="M200.56,362.23a32.29,32.29,0,0,1,0,11.32,32.29,32.29,0,0,1,0-11.32Z"></path><path d="M204.14,362.23a29.2,29.2,0,0,1,.5,5.66,28.57,28.57,0,0,1-.5,5.66,27.84,27.84,0,0,1-.5-5.66A29.2,29.2,0,0,1,204.14,362.23Z"></path><path d="M195.47,362.23a32.29,32.29,0,0,1,0,11.32,27.84,27.84,0,0,1-.5-5.66A28.44,28.44,0,0,1,195.47,362.23Z"></path><path d="M162.74,362.23a29.2,29.2,0,0,1,.5,5.66,28.57,28.57,0,0,1-.5,5.66,27.84,27.84,0,0,1-.5-5.66A29.2,29.2,0,0,1,162.74,362.23Z"></path></g><polygon points="207.01 360.93 207.01 363.94 142.97 365.96 142.97 360.93 207.01 360.93" style="opacity:0.1"></polygon><rect x="142.97" y="403.38" width="64.05" height="14.15" style="fill:#C868C8"></rect><g style="opacity:0.1"><path d="M204.14,416a28.44,28.44,0,0,1-.5-5.66,27.84,27.84,0,0,1,.5-5.66,28.57,28.57,0,0,1,.5,5.66A29.2,29.2,0,0,1,204.14,416Z"></path><path d="M199.37,416a29.2,29.2,0,0,1-.5-5.66,27.84,27.84,0,0,1,.5-5.66,28.57,28.57,0,0,1,.5,5.66A29.2,29.2,0,0,1,199.37,416Z"></path><path d="M197,416a28.44,28.44,0,0,1-.5-5.66,27.84,27.84,0,0,1,.5-5.66,28.57,28.57,0,0,1,.5,5.66A29.2,29.2,0,0,1,197,416Z"></path><path d="M184.25,416a28.44,28.44,0,0,1-.5-5.66,27.84,27.84,0,0,1,.5-5.66,32.29,32.29,0,0,1,0,11.32Z"></path><path d="M180.79,416a32.29,32.29,0,0,1,0-11.32,32.29,32.29,0,0,1,0,11.32Z"></path><path d="M166.48,416a28.44,28.44,0,0,1-.5-5.66,27.84,27.84,0,0,1,.5-5.66,28.57,28.57,0,0,1,.5,5.66A29.2,29.2,0,0,1,166.48,416Z"></path><path d="M163.17,416a32.29,32.29,0,0,1,0-11.32,32.29,32.29,0,0,1,0,11.32Z"></path><path d="M157.1,416a32.29,32.29,0,0,1,0-11.32,27.84,27.84,0,0,1,.5,5.66A28.44,28.44,0,0,1,157.1,416Z"></path><path d="M169.24,416a32.29,32.29,0,0,1,0-11.32,32.29,32.29,0,0,1,0,11.32Z"></path><path d="M192.81,416a32.29,32.29,0,0,1,0-11.32,27.84,27.84,0,0,1,.5,5.66A28.44,28.44,0,0,1,192.81,416Z"></path><path d="M176.23,416a32.29,32.29,0,0,1,0-11.32,32.29,32.29,0,0,1,0,11.32Z"></path><path d="M173.85,416a29.2,29.2,0,0,1-.5-5.66,27.84,27.84,0,0,1,.5-5.66,28.57,28.57,0,0,1,.5,5.66A29.2,29.2,0,0,1,173.85,416Z"></path><path d="M149.19,416a28.44,28.44,0,0,1-.5-5.66,27.84,27.84,0,0,1,.5-5.66,28.57,28.57,0,0,1,.5,5.66A29.2,29.2,0,0,1,149.19,416Z"></path><path d="M145.61,416a32.29,32.29,0,0,1,0-11.32,27.84,27.84,0,0,1,.5,5.66A28.44,28.44,0,0,1,145.61,416Z"></path><path d="M154.28,416a32.29,32.29,0,0,1,0-11.32,32.29,32.29,0,0,1,0,11.32Z"></path><path d="M187,416a32.29,32.29,0,0,1,0-11.32,27.84,27.84,0,0,1,.5,5.66A28.44,28.44,0,0,1,187,416Z"></path></g><polygon points="207.01 403.39 207.01 406.39 142.97 408.41 142.97 403.39 207.01 403.39" style="opacity:0.1"></polygon><path d="M137.63,382.65c42.16,7.56,31,70-11.21,62.44S95.4,375.07,137.63,382.65Z" style="fill:#C868C8"></path><path d="M137.63,382.65c42.16,7.56,31,70-11.21,62.44S95.4,375.07,137.63,382.65Z" style="opacity:0.1"></path><path d="M133.67,381.94c40.18,7.2,29,69.66-11.2,62.44S93.43,374.71,133.67,381.94Z" style="fill:#C868C8"></path><path d="M102.59,414.63c.21,11.12,6.69,21.9,20.83,24.44,33.4,6,42.65-45.84,9.3-51.83l-.65-.1c31.26,6.26,22.3,55.31-9.54,49.6C109.54,434.41,103.28,424.8,102.59,414.63Z" style="opacity:0.1"></path><g style="opacity:0.1"><path d="M131.54,393.72a1.07,1.07,0,0,1,.77,1.29l-.42,1.71a14.38,14.38,0,0,1,6.87,4.9,1.24,1.24,0,0,1,.36,1.14,1.13,1.13,0,0,1-1.38.79,1.08,1.08,0,0,1-.7-.49,12.49,12.49,0,0,0-5.73-4.39l-3,12c6.18,3,8.31,6.12,7.26,10.32-1.13,4.54-5.75,6.8-11.15,5.64l-.83,3.34a1.06,1.06,0,0,1-2.06-.51l.85-3.39a16.66,16.66,0,0,1-8.61-6.56,1.12,1.12,0,0,1,1.1-1.82,1.11,1.11,0,0,1,.69.49,14.33,14.33,0,0,0,7.38,6L126,412c-6.07-3-8.14-6-7.07-10.32s5.67-6.69,10.93-5.51l.41-1.63A1.07,1.07,0,0,1,131.54,393.72Zm-5,16,2.91-11.7c-4.17-.95-7.54.85-8.3,3.93C120.42,404.92,121.34,407.06,126.54,409.77Zm1.23,3.08-3,11.83c4.31,1,7.71-.81,8.52-4.07C134.08,417.66,133,415.48,127.77,412.85Z"></path></g></g><g id="freepik--Floor--inject-145"><polygon points="47.44 445.72 98.08 445.48 148.72 445.39 250 445.22 351.28 445.39 401.92 445.48 452.56 445.72 401.92 445.97 351.28 446.06 250 446.22 148.72 446.06 98.08 445.97 47.44 445.72" style="fill:#263238"></polygon></g></svg>
